<svg xmlns="http://www.w3.org/2000/svg" width="595.751" height="56.693" viewBox="0 0 157.626 15"><g style="fill:#1a3a2a;fill-opacity:1;stroke:#1a3a2a;stroke-opacity:1"><path d="m215.58-77.423 2.312 2.946v3.31h.917v-3.31l2.311-2.946h-1.083l-1.698 2.158-1.675-2.158zM210.89-77.423v6.248h3.632v-.798h-2.736v-1.943h2.562v-.802h-2.562v-1.908h2.652v-.797zM205.6-77.423v6.256h3.713v-.815h-2.817v-5.441z" style="font-size:9.17222px;line-height:1.2;font-family:&quot;Gill Sans MT&quot;;-inkscape-font-specification:&quot;Gill Sans MT, Normal&quot;;text-align:center;letter-spacing:.79375px;word-spacing:2.64583px;fill:#1a3a2a;fill-opacity:1;stroke:#1a3a2a;stroke-width:.2;stroke-opacity:1" transform="translate(-152.568 81.545)"/><path d="m194.531-77.423 2.531 6.283h.194l2.072-5.087 2.056 5.087h.193l2.54-6.283h-.895l-1.713 4.313-1.749-4.313h-.854l-1.74 4.313-1.731-4.313z" style="font-size:9.19029px;line-height:1.2;font-family:&quot;Gill Sans MT&quot;;-inkscape-font-specification:&quot;Gill Sans MT, Normal&quot;;text-align:center;letter-spacing:.795315px;word-spacing:2.65105px;fill:#1a3a2a;fill-opacity:1;stroke:#1a3a2a;stroke-width:.2;stroke-opacity:1" transform="translate(-152.568 81.545)"/><path d="M182.765-77.423v6.256h.896v-2.723h.233q.438 0 .622.103.188.099.416.327.234.229.51.614l.301.488.278.457.174.246q.04.054.054.076l.274.412h1.066l-.332-.448q-.198-.269-.524-.801-.52-.847-.806-1.187a2.8 2.8 0 0 0-.587-.538q.51-.197.784-.595a1.63 1.63 0 0 0 .273-.945q0-.802-.56-1.272-.555-.47-1.505-.47zm.896.761h.268q.66 0 .94.099a.83.83 0 0 1 .444.34.95.95 0 0 1 .157.533q0 .3-.143.537a.87.87 0 0 1-.395.35q-.25.116-.93.116h-.341zM305.812-77.46v6.258h2.119q.716 0 1.191-.238.48-.237.726-.613t.246-.856q0-.605-.407-1.039-.404-.435-1.089-.564.954-.4.954-1.322 0-.48-.228-.841a1.53 1.53 0 0 0-.663-.574q-.435-.21-1.21-.21zm.896.798h.77q1.147 0 1.147.9 0 .435-.305.708-.3.273-1.016.273h-.596zm0 2.678h.838q.667 0 .976.117a1 1 0 0 1 .475.354q.17.237.17.524a.9.9 0 0 1-.162.519.95.95 0 0 1-.42.358q-.26.112-.994.112h-.883zM298.395-77.46v3.544q0 .756.098 1.11.104.354.256.6.156.242.38.44.74.635 1.962.635 1.2 0 1.944-.64.223-.194.376-.435.155-.246.26-.613.107-.368.107-1.089v-3.551h-.9v3.551q0 .739-.117 1.044-.116.305-.38.528-.502.417-1.3.417a2.15 2.15 0 0 1-.971-.206 1.45 1.45 0 0 1-.614-.555q-.201-.346-.201-1.228v-3.551zM293.234-77.46v6.258h3.713v-.816h-2.817v-5.441zM271.79-77.46v.798h2.145v5.468h.9v-5.468h2.18v-.797zM266.942-77.46v6.248h3.633v-.797h-2.737v-1.944h2.562v-.801h-2.562v-1.908h2.651v-.797zM259.525-77.46v3.544q0 .756.098 1.11.104.354.256.6.156.242.38.44.74.635 1.962.635 1.2 0 1.944-.64.223-.194.376-.435.156-.246.26-.613.107-.368.107-1.089v-3.551h-.9v3.551q0 .739-.117 1.044-.116.305-.38.528-.502.417-1.3.417a2.15 2.15 0 0 1-.971-.206 1.45 1.45 0 0 1-.614-.555q-.201-.346-.201-1.228v-3.551zM254.391-77.46q-1.46 0-2.414.919-.954.918-.954 2.32 0 1.147.74 2.024a3.12 3.12 0 0 0 1.885 1.084q.788.542 1.258.766.475.225.932.35.461.13.882.152l.9-.874q-.358.12-.627.121-.488 0-1.594-.426l-.237-.089a3.16 3.16 0 0 0 1.876-1.106 3.1 3.1 0 0 0 .726-2.038q0-1.38-.963-2.289-.959-.913-2.41-.913zm0 .852q1.062 0 1.756.672.694.67.694 1.697 0 1.004-.708 1.688-.708.686-1.742.686-1.047 0-1.742-.668-.694-.67-.694-1.679 0-1.035.69-1.716.69-.68 1.746-.68zM246.04-77.46q-1.45 0-2.4.919-.95.918-.95 2.32 0 1.365.94 2.275.946.905 2.361.905 1.482 0 2.454-.905.976-.909.976-2.293 0-1.383-.967-2.302-.963-.918-2.414-.918zm.036.852q1.02 0 1.72.68.703.676.703 1.671 0 1.021-.703 1.706-.699.686-1.747.686-1.043 0-1.737-.672-.695-.673-.695-1.684 0-1.044.69-1.715.694-.672 1.769-.672z" style="font-size:9.17222px;line-height:1.2;font-family:&quot;Gill Sans MT&quot;;-inkscape-font-specification:&quot;Gill Sans MT, Normal&quot;;text-align:center;letter-spacing:.79375px;word-spacing:2.64583px;fill:#1a3a2a;fill-opacity:1;stroke:#1a3a2a;stroke-width:.2;stroke-opacity:1" transform="translate(-152.568 81.545)"/><path d="M237.21-77.46v6.252h.894v-2.72h.233q.439 0 .622.103.188.098.416.326.233.228.51.613l.3.488.277.456.175.246q.04.054.054.077l.273.41h1.065l-.332-.447a13 13 0 0 1-.523-.8q-.52-.846-.806-1.186a2.8 2.8 0 0 0-.586-.537q.51-.197.783-.595t.273-.944q0-.801-.56-1.271-.554-.47-1.503-.47zm.894.761h.269q.657 0 .94.099.285.099.442.34a.94.94 0 0 1 .157.532q0 .3-.143.538a.86.86 0 0 1-.394.349q-.25.116-.93.116h-.34z" style="font-size:9.16445px;line-height:1.2;font-family:&quot;Gill Sans MT&quot;;-inkscape-font-specification:&quot;Gill Sans MT, Normal&quot;;text-align:center;letter-spacing:.793078px;word-spacing:2.64359px;fill:#1a3a2a;fill-opacity:1;stroke:#1a3a2a;stroke-width:.2;stroke-opacity:1" transform="translate(-152.568 81.545)"/><path d="m191.077-77.46-2.691 6.293h.92l.789-1.854h2.664l.835 1.854h.92l-2.804-6.292zm.305 1.376 1.01 2.266h-1.947z" style="font-size:9.17952px;line-height:1.2;font-family:&quot;Gill Sans MT&quot;;-inkscape-font-specification:&quot;Gill Sans MT, Normal&quot;;text-align:center;letter-spacing:.79438px;word-spacing:2.64793px;fill:#1a3a2a;fill-opacity:1;stroke:#1a3a2a;stroke-width:.2;stroke-opacity:1" transform="translate(-152.568 81.545)"/><path d="M288.466-78.243q-1.76 0-2.96 1.146-1.197 1.146-1.197 2.828 0 1.058.524 1.967.524.91 1.422 1.428.899.519 2.188.519 1.588 0 2.8-.662v-1.213q-1.334.86-2.733.86-1.34 0-2.2-.816t-.86-2.083q0-1.257.872-2.09.876-.837 2.199-.837 1.29 0 2.64.772v-1.186q-1.483-.633-2.695-.633zM232.414-78.243q-1.76 0-2.96 1.146-1.197 1.146-1.197 2.828 0 1.058.524 1.967.523.91 1.422 1.428.899.519 2.189.519 1.587 0 2.8-.662v-1.213q-1.335.86-2.734.86-1.34 0-2.2-.816t-.86-2.083q0-1.257.871-2.09.877-.837 2.2-.837 1.29 0 2.64.772v-1.186q-1.483-.633-2.695-.633zM177.97-78.243q-1.76 0-2.96 1.146-1.197 1.146-1.197 2.828 0 1.058.524 1.967.524.91 1.422 1.428.898.519 2.188.519 1.588 0 2.8-.662v-1.213q-1.333.86-2.734.86-1.34 0-2.199-.816-.86-.816-.86-2.083 0-1.257.87-2.09.877-.837 2.2-.837 1.29 0 2.64.772v-1.186q-1.482-.633-2.694-.633z" style="font-size:11.2889px;line-height:1.2;font-family:&quot;Gill Sans MT&quot;;-inkscape-font-specification:&quot;Gill Sans MT, Normal&quot;;text-align:center;letter-spacing:.79375px;word-spacing:2.64583px;fill:#1a3a2a;fill-opacity:1;stroke:#1a3a2a;stroke-width:.2;stroke-opacity:1" transform="translate(-152.568 81.545)"/></g><g fill="none" stroke="#1a3a6e" stroke-width=".529" style="stroke:#000;stroke-width:1.30601" transform="translate(142.597 -129.699)scale(.76568)"><circle cx="-176.44" cy="184.965" r="3.95" style="fill:#1a1a1a;fill-opacity:1;stroke:#000;stroke-width:.130601;stroke-dasharray:none"/><circle cx="-182.22" cy="179.185" r="3.95" style="fill:#ff0;fill-opacity:1;stroke:#000;stroke-width:.130601;stroke-dasharray:none"/><circle cx="-170.66" cy="179.185" r="3.95" style="fill:#d40000;fill-opacity:1;stroke:#000;stroke-width:.130601;stroke-dasharray:none"/><circle cx="-176.44" cy="173.405" r="3.95" style="fill:#00f;fill-opacity:1;stroke:#000;stroke-width:.130601;stroke-dasharray:none"/></g></svg>