<svg xmlns="http://www.w3.org/2000/svg" width="595.751" height="56.693" viewBox="0 0 157.626 15"><g style="fill:#f7f3ea;fill-opacity:1;stroke:#f7f3ea;stroke-opacity:1"><path d="m215.58-49.35 2.312 2.947v3.31h.917v-3.31l2.311-2.947h-1.083l-1.698 2.159-1.675-2.159zM210.89-49.35v6.248h3.632v-.797h-2.736v-1.944h2.562v-.802h-2.562v-1.908h2.652v-.797zM205.6-49.35v6.257h3.713v-.815h-2.817v-5.442z" style="font-size:9.17222px;line-height:1.2;font-family:&quot;Gill Sans MT&quot;;-inkscape-font-specification:&quot;Gill Sans MT, Normal&quot;;text-align:center;letter-spacing:.79375px;word-spacing:2.64583px;fill:#f7f3ea;fill-opacity:1;stroke:#f7f3ea;stroke-width:.2;stroke-opacity:1" transform="translate(-152.568 53.471)"/><path d="m194.531-49.35 2.531 6.284h.194l2.072-5.088 2.056 5.088h.193l2.54-6.284h-.895l-1.713 4.313-1.749-4.313h-.854l-1.74 4.313-1.731-4.313z" style="font-size:9.19029px;line-height:1.2;font-family:&quot;Gill Sans MT&quot;;-inkscape-font-specification:&quot;Gill Sans MT, Normal&quot;;text-align:center;letter-spacing:.795315px;word-spacing:2.65105px;fill:#f7f3ea;fill-opacity:1;stroke:#f7f3ea;stroke-width:.2;stroke-opacity:1" transform="translate(-152.568 53.471)"/><path d="M182.765-49.35v6.257h.896v-2.723h.233q.438 0 .622.103.188.098.416.327.234.228.51.613l.301.489.278.456.174.246q.04.054.054.077l.274.412h1.066l-.332-.448q-.198-.27-.524-.802-.52-.846-.806-1.187a2.8 2.8 0 0 0-.587-.537q.51-.197.784-.596a1.63 1.63 0 0 0 .273-.945q0-.801-.56-1.272-.555-.47-1.505-.47zm.896.761h.268q.66 0 .94.1a.83.83 0 0 1 .444.34.95.95 0 0 1 .157.532q0 .3-.143.538a.87.87 0 0 1-.395.35q-.25.115-.93.115h-.341zM305.812-49.386v6.257h2.119q.716 0 1.191-.238.48-.237.726-.613t.246-.855q0-.605-.407-1.04-.404-.434-1.089-.564.954-.399.954-1.321 0-.48-.228-.842a1.53 1.53 0 0 0-.663-.573q-.435-.21-1.21-.21zm.896.797h.77q1.147 0 1.147.9 0 .435-.305.708-.3.273-1.016.273h-.596zm0 2.679h.838q.667 0 .976.116a1 1 0 0 1 .475.354q.17.237.17.524a.9.9 0 0 1-.162.52.95.95 0 0 1-.42.358q-.26.111-.994.112h-.883zM298.395-49.386v3.543q0 .758.098 1.11.104.354.256.6.156.242.38.44.74.636 1.962.635 1.2 0 1.944-.64.223-.192.376-.435.155-.246.26-.613.107-.368.107-1.088v-3.552h-.9v3.552q0 .738-.117 1.043-.116.305-.38.529-.502.416-1.3.416a2.15 2.15 0 0 1-.971-.206 1.45 1.45 0 0 1-.614-.555q-.201-.345-.201-1.227v-3.552zM293.234-49.386v6.257h3.713v-.815h-2.817v-5.442zM271.79-49.386v.797h2.145v5.469h.9v-5.469h2.18v-.797zM266.942-49.386v6.248h3.633v-.797h-2.737v-1.944h2.562v-.802h-2.562v-1.908h2.651v-.797zM259.525-49.386v3.543q0 .758.098 1.11.104.354.256.6.156.242.38.44.74.636 1.962.635 1.2 0 1.944-.64.223-.192.376-.435.156-.246.26-.613.107-.368.107-1.088v-3.552h-.9v3.552q0 .738-.117 1.043-.116.305-.38.529-.502.416-1.3.416a2.15 2.15 0 0 1-.971-.206 1.45 1.45 0 0 1-.614-.555q-.201-.345-.201-1.227v-3.552zM254.391-49.386q-1.46 0-2.414.918t-.954 2.32q0 1.147.74 2.025a3.12 3.12 0 0 0 1.885 1.083q.788.543 1.258.766.475.224.932.35.461.13.882.152l.9-.873q-.358.12-.627.12-.488 0-1.594-.425l-.237-.09a3.16 3.16 0 0 0 1.876-1.106 3.1 3.1 0 0 0 .726-2.038q0-1.38-.963-2.288-.959-.915-2.41-.914zm0 .851q1.062 0 1.756.672t.694 1.698q0 1.002-.708 1.688t-1.742.685q-1.047 0-1.742-.667-.694-.672-.694-1.68 0-1.034.69-1.715.69-.68 1.746-.68zM246.04-49.386q-1.45 0-2.4.918t-.95 2.32q0 1.366.94 2.275.946.905 2.361.905 1.482 0 2.454-.905.976-.909.976-2.292 0-1.384-.967-2.303-.963-.918-2.414-.918zm.036.851q1.02 0 1.72.68.703.678.703 1.671 0 1.021-.703 1.707-.699.685-1.747.685-1.043 0-1.737-.672t-.695-1.684q0-1.043.69-1.715.694-.672 1.769-.672z" style="font-size:9.17222px;line-height:1.2;font-family:&quot;Gill Sans MT&quot;;-inkscape-font-specification:&quot;Gill Sans MT, Normal&quot;;text-align:center;letter-spacing:.79375px;word-spacing:2.64583px;fill:#f7f3ea;fill-opacity:1;stroke:#f7f3ea;stroke-width:.2;stroke-opacity:1" transform="translate(-152.568 53.471)"/><path d="M237.21-49.386v6.251h.894v-2.72h.233q.439 0 .622.103.188.098.416.327.233.228.51.612l.3.488.277.457.175.246q.04.053.054.076l.273.411h1.065l-.332-.447a13 13 0 0 1-.523-.801q-.52-.846-.806-1.186a2.8 2.8 0 0 0-.586-.537q.51-.196.783-.595t.273-.944q0-.8-.56-1.27-.554-.47-1.503-.47zm.894.76h.269q.657 0 .94.1.285.097.442.34a.94.94 0 0 1 .157.532q0 .3-.143.537a.86.86 0 0 1-.394.349q-.25.117-.93.116h-.34z" style="font-size:9.16445px;line-height:1.2;font-family:&quot;Gill Sans MT&quot;;-inkscape-font-specification:&quot;Gill Sans MT, Normal&quot;;text-align:center;letter-spacing:.793078px;word-spacing:2.64359px;fill:#f7f3ea;fill-opacity:1;stroke:#f7f3ea;stroke-width:.2;stroke-opacity:1" transform="translate(-152.568 53.471)"/><path d="m191.077-49.386-2.691 6.293h.92l.789-1.854h2.664l.835 1.854h.92l-2.804-6.293zm.305 1.375 1.01 2.266h-1.947z" style="font-size:9.17952px;line-height:1.2;font-family:&quot;Gill Sans MT&quot;;-inkscape-font-specification:&quot;Gill Sans MT, Normal&quot;;text-align:center;letter-spacing:.79438px;word-spacing:2.64793px;fill:#f7f3ea;fill-opacity:1;stroke:#f7f3ea;stroke-width:.2;stroke-opacity:1" transform="translate(-152.568 53.471)"/><path d="M288.466-50.17q-1.76 0-2.96 1.146-1.197 1.147-1.197 2.828 0 1.059.524 1.968t1.422 1.428 2.188.518q1.588 0 2.8-.661v-1.213q-1.334.86-2.733.86-1.34 0-2.2-.816t-.86-2.084q0-1.257.872-2.089.876-.837 2.199-.838 1.29 0 2.64.772v-1.185q-1.483-.634-2.695-.634zM232.414-50.17q-1.76 0-2.96 1.146-1.197 1.147-1.197 2.828 0 1.059.524 1.968.523.909 1.422 1.428t2.189.518q1.587 0 2.8-.661v-1.213q-1.335.86-2.734.86-1.34 0-2.2-.816t-.86-2.084q0-1.257.871-2.089.877-.837 2.2-.838 1.29 0 2.64.772v-1.185q-1.483-.634-2.695-.634zM177.97-50.17q-1.76 0-2.96 1.146-1.197 1.147-1.197 2.828 0 1.059.524 1.968t1.422 1.428 2.188.518q1.588 0 2.8-.661v-1.213q-1.333.86-2.734.86-1.34 0-2.199-.816-.86-.816-.86-2.084 0-1.257.87-2.089.877-.837 2.2-.838 1.29 0 2.64.772v-1.185q-1.482-.634-2.694-.634z" style="font-size:11.2889px;line-height:1.2;font-family:&quot;Gill Sans MT&quot;;-inkscape-font-specification:&quot;Gill Sans MT, Normal&quot;;text-align:center;letter-spacing:.79375px;word-spacing:2.64583px;fill:#f7f3ea;fill-opacity:1;stroke:#f7f3ea;stroke-width:.2;stroke-opacity:1" transform="translate(-152.568 53.471)"/></g><g fill="none" stroke="#1a3a6e" stroke-width=".529" style="stroke:#fff;stroke-width:1.30601" transform="translate(142.597 -129.699)scale(.76568)"><circle cx="-176.44" cy="184.965" r="3.95" style="fill:#1a1a1a;fill-opacity:1;stroke:#fff;stroke-width:.130601;stroke-dasharray:none"/><circle cx="-182.22" cy="179.185" r="3.95" style="fill:#ff0;fill-opacity:1;stroke:#fff;stroke-width:.130601;stroke-dasharray:none"/><circle cx="-170.66" cy="179.185" r="3.95" style="fill:#d40000;fill-opacity:1;stroke:#fff;stroke-width:.130601;stroke-dasharray:none"/><circle cx="-176.44" cy="173.405" r="3.95" style="fill:#00f;fill-opacity:1;stroke:#fff;stroke-width:.130601;stroke-dasharray:none"/></g></svg>