<?xml version="1.0" encoding="UTF-8" standalone="no"?>
<!-- Created with Inkscape (http://www.inkscape.org/) -->

<svg
   width="157.62569mm"
   height="14.999989mm"
   viewBox="0 0 157.62569 14.999989"
   version="1.1"
   id="svg1"
   inkscape:version="1.4.2 (f4327f4, 2025-05-13)"
   sodipodi:docname="logo_line_dark.svg"
   xmlns:inkscape="http://www.inkscape.org/namespaces/inkscape"
   xmlns:sodipodi="http://sodipodi.sourceforge.net/DTD/sodipodi-0.dtd"
   xmlns="http://www.w3.org/2000/svg"
   xmlns:svg="http://www.w3.org/2000/svg">
  <sodipodi:namedview
     id="namedview1"
     pagecolor="#ffffff"
     bordercolor="#000000"
     borderopacity="0.25"
     inkscape:showpageshadow="2"
     inkscape:pageopacity="0.0"
     inkscape:pagecheckerboard="0"
     inkscape:deskcolor="#d1d1d1"
     inkscape:document-units="mm"
     inkscape:zoom="1.0396254"
     inkscape:cx="102.44074"
     inkscape:cy="321.75051"
     inkscape:window-width="2560"
     inkscape:window-height="1369"
     inkscape:window-x="-8"
     inkscape:window-y="-8"
     inkscape:window-maximized="1"
     inkscape:current-layer="svg1"
     showguides="true" />
  <defs
     id="defs1">
    <rect
       x="578.0929"
       y="277.02286"
       width="197.66736"
       height="53.865559"
       id="rect58" />
    <clipPath
       id="bc">
      <circle
         cx="340"
         cy="330"
         r="255"
         id="circle1" />
    </clipPath>
    <clipPath
       id="clipPath2">
      <circle
         cx="340"
         cy="330"
         r="255"
         id="circle2" />
    </clipPath>
    <clipPath
       id="clipPath3">
      <circle
         cx="340"
         cy="330"
         r="255"
         id="circle3" />
    </clipPath>
    <clipPath
       id="clipPath4">
      <circle
         cx="340"
         cy="330"
         r="255"
         id="circle4" />
    </clipPath>
    <clipPath
       id="clipPath5">
      <circle
         cx="340"
         cy="330"
         r="255"
         id="circle5" />
    </clipPath>
    <clipPath
       id="clipPath6">
      <circle
         cx="340"
         cy="330"
         r="255"
         id="circle6" />
    </clipPath>
    <clipPath
       id="clipPath7">
      <circle
         cx="340"
         cy="330"
         r="255"
         id="circle7" />
    </clipPath>
    <clipPath
       id="clipPath8">
      <circle
         cx="340"
         cy="330"
         r="255"
         id="circle8" />
    </clipPath>
  </defs>
  <g
     inkscape:label="Old"
     inkscape:groupmode="layer"
     id="layer1"
     transform="translate(191.45655,-143.46206)" />
  <g
     id="g530"
     inkscape:label="Line dark"
     transform="translate(-152.56804,81.544508)">
    <g
       id="g528"
       inkscape:label="Text"
       style="fill:#1a3a2a;fill-opacity:1;stroke:#1a3a2a;stroke-opacity:1">
      <path
         d="m 215.58064,-77.423181 2.31097,2.94659 v 3.309876 h 0.91777 v -3.309876 l 2.31097,-2.94659 h -1.08365 l -1.69757,2.158524 -1.67484,-2.158524 z"
         style="font-size:9.17222px;line-height:1.2;font-family:'Gill Sans MT';-inkscape-font-specification:'Gill Sans MT, Normal';text-align:center;letter-spacing:0.79375px;word-spacing:2.64583px;fill:#1a3a2a;fill-opacity:1;stroke:#1a3a2a;stroke-width:0.2;stroke-opacity:1"
         id="path498" />
      <path
         d="m 210.89049,-77.423181 v 6.247681 h 3.63182 v -0.797368 h -2.73627 v -1.94355 h 2.5616 v -0.802019 h -2.5616 v -1.907894 h 2.65152 v -0.79685 z"
         style="font-size:9.17222px;line-height:1.2;font-family:'Gill Sans MT';-inkscape-font-specification:'Gill Sans MT, Normal';text-align:center;letter-spacing:0.79375px;word-spacing:2.64583px;fill:#1a3a2a;fill-opacity:1;stroke:#1a3a2a;stroke-width:0.2;stroke-opacity:1"
         id="path497" />
      <path
         d="m 205.59985,-77.423181 v 6.256466 h 3.71296 v -0.814938 h -2.81689 v -5.441528 z"
         style="font-size:9.17222px;line-height:1.2;font-family:'Gill Sans MT';-inkscape-font-specification:'Gill Sans MT, Normal';text-align:center;letter-spacing:0.79375px;word-spacing:2.64583px;fill:#1a3a2a;fill-opacity:1;stroke:#1a3a2a;stroke-width:0.2;stroke-opacity:1"
         id="path496" />
      <path
         d="m 194.53128,-77.423181 2.53111,6.283337 h 0.19327 l 2.07274,-5.087545 2.05517,5.087545 h 0.19327 l 2.54042,-6.283337 h -0.89504 l -1.71307,4.312915 -1.74873,-4.312915 h -0.85473 l -1.73995,4.312915 -1.73116,-4.312915 z"
         style="font-size:9.19029px;line-height:1.2;font-family:'Gill Sans MT';-inkscape-font-specification:'Gill Sans MT, Normal';text-align:center;letter-spacing:0.795315px;word-spacing:2.65105px;fill:#1a3a2a;fill-opacity:1;stroke:#1a3a2a;stroke-width:0.2;stroke-opacity:1"
         id="path495" />
      <path
         d="m 182.76507,-77.423181 v 6.256466 h 0.89555 v -2.722832 h 0.23306 c 0.29261,0 0.49977,0.03416 0.62219,0.102836 0.1254,0.06569 0.26424,0.174839 0.41651,0.327112 0.15526,0.152273 0.32545,0.356625 0.51056,0.613399 l 0.30024,0.488343 0.27751,0.456819 0.17466,0.24598 c 0.0269,0.03583 0.0448,0.06155 0.0538,0.07648 l 0.27337,0.411862 h 1.06608 l -0.33176,-0.448035 c -0.13138,-0.179145 -0.30604,-0.446198 -0.524,-0.801502 -0.34635,-0.564306 -0.61507,-0.96009 -0.80615,-1.187007 -0.19109,-0.226917 -0.38649,-0.406062 -0.58653,-0.537435 0.34037,-0.131373 0.6018,-0.329581 0.78393,-0.595313 0.18213,-0.265731 0.27285,-0.5809 0.27285,-0.945162 0,-0.534449 -0.18644,-0.958253 -0.55965,-1.271757 -0.37024,-0.313503 -0.87184,-0.470255 -1.50482,-0.470255 z m 0.89555,0.761194 h 0.26872 c 0.43891,0 0.75241,0.03301 0.94051,0.0987 0.19109,0.06569 0.33889,0.1788 0.44339,0.340031 0.1045,0.158244 0.15658,0.336241 0.15658,0.5333 0,0.200046 -0.0476,0.379191 -0.14315,0.537435 -0.0926,0.155259 -0.2241,0.271703 -0.39429,0.349333 -0.1672,0.07763 -0.47737,0.116272 -0.93121,0.116272 h -0.34055 z"
         style="font-size:9.17222px;line-height:1.2;font-family:'Gill Sans MT';-inkscape-font-specification:'Gill Sans MT, Normal';text-align:center;letter-spacing:0.79375px;word-spacing:2.64583px;fill:#1a3a2a;fill-opacity:1;stroke:#1a3a2a;stroke-width:0.2;stroke-opacity:1"
         id="path494" />
      <path
         d="m 305.81234,-77.459355 v 6.256983 h 2.11822 c 0.47772,0 0.87517,-0.07947 1.19166,-0.237712 0.31947,-0.158245 0.56132,-0.362596 0.72553,-0.613399 0.16422,-0.250803 0.24598,-0.53577 0.24598,-0.855245 0,-0.403076 -0.1355,-0.749595 -0.40721,-1.039213 -0.26871,-0.289618 -0.63148,-0.47772 -1.0883,-0.564307 0.63596,-0.265731 0.95394,-0.706302 0.95394,-1.321366 0,-0.319475 -0.0761,-0.599964 -0.22841,-0.841809 -0.15227,-0.244832 -0.37339,-0.435747 -0.663,-0.573092 -0.28962,-0.14033 -0.6927,-0.21084 -1.20923,-0.21084 z m 0.89555,0.797368 h 0.7705 c 0.76435,0 1.1467,0.300068 1.1467,0.900203 0,0.289618 -0.10186,0.52532 -0.30489,0.707451 -0.20005,0.18213 -0.53876,0.273368 -1.01648,0.273368 h -0.59583 z m 0,2.678389 h 0.83768 c 0.44488,0 0.77015,0.03864 0.97617,0.116272 0.20601,0.07763 0.36443,0.195739 0.4749,0.353984 0.11346,0.158244 0.17002,0.332911 0.17002,0.523999 0,0.185116 -0.0537,0.358117 -0.16123,0.519348 -0.1045,0.16123 -0.24449,0.280488 -0.42065,0.358118 -0.17317,0.07464 -0.50459,0.112137 -0.99425,0.112137 h -0.88264 z"
         style="font-size:9.17222px;line-height:1.2;font-family:'Gill Sans MT';-inkscape-font-specification:'Gill Sans MT, Normal';text-align:center;letter-spacing:0.79375px;word-spacing:2.64583px;fill:#1a3a2a;fill-opacity:1;stroke:#1a3a2a;stroke-width:0.2;stroke-opacity:1"
         id="path493" />
      <path
         d="m 298.39471,-77.459355 v 3.542937 c 0,0.504591 0.033,0.874652 0.0987,1.110526 0.0687,0.235874 0.15376,0.435747 0.25528,0.599963 0.1045,0.161231 0.23105,0.307877 0.38034,0.43925 0.49265,0.423976 1.14653,0.63562 1.96164,0.63562 0.80018,0 1.44843,-0.213309 1.94406,-0.640271 0.14929,-0.128387 0.27469,-0.273368 0.37621,-0.434599 0.1045,-0.164216 0.19074,-0.368567 0.25941,-0.613399 0.0717,-0.244831 0.10749,-0.6076 0.10749,-1.088305 v -3.551722 h -0.9002 v 3.551722 c 0,0.492648 -0.0386,0.840316 -0.11628,1.043347 -0.0776,0.203031 -0.20469,0.379362 -0.38085,0.52865 -0.3344,0.277674 -0.76717,0.416512 -1.29863,0.416512 -0.37322,0 -0.69734,-0.06885 -0.97203,-0.206189 -0.27469,-0.140331 -0.47904,-0.325103 -0.6134,-0.555005 -0.13436,-0.229903 -0.20154,-0.639123 -0.20154,-1.227315 v -3.551722 z"
         style="font-size:9.17222px;line-height:1.2;font-family:'Gill Sans MT';-inkscape-font-specification:'Gill Sans MT, Normal';text-align:center;letter-spacing:0.79375px;word-spacing:2.64583px;fill:#1a3a2a;fill-opacity:1;stroke:#1a3a2a;stroke-width:0.2;stroke-opacity:1"
         id="path492" />
      <path
         d="m 293.2343,-77.459355 v 6.256983 h 3.71295 v -0.815454 h -2.8174 v -5.441529 z"
         style="font-size:9.17222px;line-height:1.2;font-family:'Gill Sans MT';-inkscape-font-specification:'Gill Sans MT, Normal';text-align:center;letter-spacing:0.79375px;word-spacing:2.64583px;fill:#1a3a2a;fill-opacity:1;stroke:#1a3a2a;stroke-width:0.2;stroke-opacity:1"
         id="path491" />
      <path
         d="m 271.7891,-77.459355 v 0.797368 h 2.1456 v 5.4684 h 0.9002 v -5.4684 h 2.18075 v -0.797368 z"
         style="font-size:9.17222px;line-height:1.2;font-family:'Gill Sans MT';-inkscape-font-specification:'Gill Sans MT, Normal';text-align:center;letter-spacing:0.79375px;word-spacing:2.64583px;fill:#1a3a2a;fill-opacity:1;stroke:#1a3a2a;stroke-width:0.2;stroke-opacity:1"
         id="path490" />
      <path
         d="m 266.94236,-77.459355 v 6.247681 h 3.63234 v -0.796851 h -2.73678 v -1.944067 h 2.56211 v -0.801501 h -2.56211 v -1.907894 h 2.65151 v -0.797368 z"
         style="font-size:9.17222px;line-height:1.2;font-family:'Gill Sans MT';-inkscape-font-specification:'Gill Sans MT, Normal';text-align:center;letter-spacing:0.79375px;word-spacing:2.64583px;fill:#1a3a2a;fill-opacity:1;stroke:#1a3a2a;stroke-width:0.2;stroke-opacity:1"
         id="path489" />
      <path
         d="m 259.52473,-77.459355 v 3.542937 c 0,0.504591 0.033,0.874652 0.0987,1.110526 0.0687,0.235874 0.15377,0.435747 0.25528,0.599963 0.1045,0.161231 0.23105,0.307877 0.38034,0.43925 0.49265,0.423976 1.14653,0.63562 1.96164,0.63562 0.80018,0 1.44843,-0.213309 1.94406,-0.640271 0.14929,-0.128387 0.27469,-0.273368 0.37621,-0.434599 0.1045,-0.164216 0.19074,-0.368567 0.25941,-0.613399 0.0717,-0.244831 0.10749,-0.6076 0.10749,-1.088305 v -3.551722 h -0.9002 v 3.551722 c 0,0.492648 -0.0386,0.840316 -0.11627,1.043347 -0.0776,0.203031 -0.2047,0.379362 -0.38086,0.52865 -0.3344,0.277674 -0.76716,0.416512 -1.29863,0.416512 -0.37322,0 -0.69734,-0.06885 -0.97203,-0.206189 -0.27469,-0.140331 -0.47904,-0.325103 -0.6134,-0.555005 -0.13436,-0.229903 -0.20154,-0.639123 -0.20154,-1.227315 v -3.551722 z"
         style="font-size:9.17222px;line-height:1.2;font-family:'Gill Sans MT';-inkscape-font-specification:'Gill Sans MT, Normal';text-align:center;letter-spacing:0.79375px;word-spacing:2.64583px;fill:#1a3a2a;fill-opacity:1;stroke:#1a3a2a;stroke-width:0.2;stroke-opacity:1"
         id="path488" />
      <path
         d="m 254.39119,-77.459355 c -0.97335,0 -1.77784,0.306212 -2.41381,0.918291 -0.63596,0.612078 -0.95394,1.385215 -0.95394,2.319755 0,0.764351 0.24632,1.439475 0.73897,2.024682 0.49563,0.585207 1.12379,0.946311 1.88516,1.083655 0.52549,0.361276 0.94533,0.616557 1.25883,0.765845 0.31649,0.149287 0.62667,0.265731 0.93121,0.349332 0.30754,0.08659 0.60198,0.137517 0.88264,0.152446 l 0.9002,-0.873332 c -0.23886,0.08062 -0.44821,0.120923 -0.62735,0.120923 -0.32545,0 -0.85674,-0.142168 -1.59422,-0.425814 l -0.23719,-0.0894 c 0.76733,-0.152273 1.39268,-0.521186 1.87637,-1.106392 0.48369,-0.585207 0.72553,-1.264293 0.72553,-2.037602 0,-0.919611 -0.32079,-1.682642 -0.96273,-2.288749 -0.63895,-0.609093 -1.44229,-0.91364 -2.40967,-0.91364 z m 0,0.851111 c 0.70762,0 1.29266,0.223931 1.75545,0.671794 0.46279,0.447862 0.69453,1.013834 0.69453,1.697571 0,0.668807 -0.23622,1.231449 -0.70797,1.688269 -0.47175,0.456819 -1.0523,0.685229 -1.74201,0.685229 -0.69866,0 -1.27922,-0.222266 -1.74201,-0.667143 -0.46279,-0.447862 -0.69453,-1.00769 -0.69453,-1.679484 0,-0.689708 0.23007,-1.261823 0.68988,-1.715657 0.4598,-0.453834 1.04202,-0.680579 1.74666,-0.680579 z"
         style="font-size:9.17222px;line-height:1.2;font-family:'Gill Sans MT';-inkscape-font-specification:'Gill Sans MT, Normal';text-align:center;letter-spacing:0.79375px;word-spacing:2.64583px;fill:#1a3a2a;fill-opacity:1;stroke:#1a3a2a;stroke-width:0.2;stroke-opacity:1"
         id="path487" />
      <path
         d="m 246.04028,-77.459355 c -0.96738,0 -1.76739,0.306212 -2.40037,0.918291 -0.63298,0.612078 -0.94981,1.385215 -0.94981,2.319755 0,0.910653 0.3135,1.669206 0.94051,2.275313 0.62999,0.603121 1.41708,0.904854 2.36058,0.904854 0.98828,0 1.8062,-0.301733 2.45411,-0.904854 0.65089,-0.606107 0.97617,-1.370287 0.97617,-2.292883 0,-0.922597 -0.32246,-1.690107 -0.96738,-2.302185 -0.64194,-0.612079 -1.44643,-0.918291 -2.41381,-0.918291 z m 0.0357,0.851111 c 0.68075,0 1.25401,0.226745 1.71979,0.680579 0.46876,0.450848 0.70331,1.007863 0.70331,1.670699 0,0.680751 -0.23455,1.249536 -0.70331,1.706356 -0.46578,0.456819 -1.048,0.685229 -1.74667,0.685229 -0.69568,0 -1.27457,-0.223931 -1.73736,-0.671793 -0.46279,-0.447863 -0.69453,-1.009356 -0.69453,-1.684135 0,-0.69568 0.23008,-1.267279 0.68988,-1.715141 0.46279,-0.447863 1.05231,-0.671794 1.76889,-0.671794 z"
         style="font-size:9.17222px;line-height:1.2;font-family:'Gill Sans MT';-inkscape-font-specification:'Gill Sans MT, Normal';text-align:center;letter-spacing:0.79375px;word-spacing:2.64583px;fill:#1a3a2a;fill-opacity:1;stroke:#1a3a2a;stroke-width:0.2;stroke-opacity:1"
         id="path486" />
      <path
         d="m 237.20929,-77.459355 v 6.251298 h 0.89504 v -2.720764 h 0.23254 c 0.29236,0 0.49988,0.03474 0.62219,0.103353 0.12529,0.06563 0.26385,0.174451 0.41599,0.326595 0.15513,0.152144 0.32509,0.356326 0.51005,0.612883 l 0.29972,0.487825 0.27751,0.456303 0.17466,0.24598 c 0.0268,0.0358 0.0448,0.06157 0.0537,0.07648 l 0.27286,0.411344 h 1.06505 l -0.33125,-0.447518 c -0.13126,-0.178993 -0.30571,-0.445981 -0.52348,-0.800984 -0.34605,-0.563829 -0.61471,-0.958733 -0.80564,-1.185458 -0.19092,-0.226724 -0.38613,-0.405656 -0.58601,-0.536918 0.34009,-0.131261 0.60092,-0.329806 0.7829,-0.595312 0.18198,-0.265507 0.27285,-0.580176 0.27285,-0.944129 0,-0.533996 -0.18623,-0.957485 -0.55914,-1.270723 -0.36992,-0.313238 -0.87134,-0.470256 -1.50378,-0.470256 z m 0.89504,0.760677 h 0.2682 c 0.43853,0 0.75205,0.03307 0.93999,0.0987 0.19093,0.06563 0.33846,0.178937 0.44287,0.340031 0.10441,0.158111 0.15658,0.335375 0.15658,0.532268 0,0.199875 -0.0477,0.379324 -0.14314,0.537434 -0.0925,0.155128 -0.22373,0.271253 -0.39378,0.348816 -0.16706,0.07756 -0.47724,0.116272 -0.93069,0.116272 h -0.34003 z"
         style="font-size:9.16445px;line-height:1.2;font-family:'Gill Sans MT';-inkscape-font-specification:'Gill Sans MT, Normal';text-align:center;letter-spacing:0.793078px;word-spacing:2.64359px;fill:#1a3a2a;fill-opacity:1;stroke:#1a3a2a;stroke-width:0.2;stroke-opacity:1"
         id="path485" />
      <path
         d="m 191.07723,-77.459355 -2.69131,6.29264 h 0.91932 l 0.78962,-1.854151 h 2.66443 l 0.83458,1.854151 h 0.91932 l -2.80344,-6.29264 z m 0.30489,1.37511 1.00924,2.266012 h -1.94665 z"
         style="font-size:9.17952px;line-height:1.2;font-family:'Gill Sans MT';-inkscape-font-specification:'Gill Sans MT, Normal';text-align:center;letter-spacing:0.79438px;word-spacing:2.64793px;fill:#1a3a2a;fill-opacity:1;stroke:#1a3a2a;stroke-width:0.2;stroke-opacity:1"
         id="path484" />
      <path
         d="m 288.4656,-78.243286 c -1.17226,0 -2.15893,0.381831 -2.96003,1.146183 -0.79743,0.764353 -1.19631,1.706929 -1.19631,2.827735 0,0.705556 0.1749,1.361501 0.524,1.967838 0.3491,0.606337 0.82315,1.082391 1.42214,1.42782 0.59898,0.345428 1.32808,0.518314 2.18798,0.518314 1.05833,0 1.99189,-0.220485 2.80034,-0.661458 V -72.2297 c -0.88929,0.573265 -1.80081,0.859896 -2.7342,0.859896 -0.89297,0 -1.62608,-0.272104 -2.19935,-0.815971 -0.57326,-0.543866 -0.85989,-1.238396 -0.85989,-2.083593 0,-0.837849 0.29065,-1.533871 0.87126,-2.088762 0.58429,-0.558565 1.3174,-0.838192 2.19935,-0.838192 0.8599,0 1.73983,0.257578 2.64015,0.772046 v -1.185457 c -0.98851,-0.422599 -1.88699,-0.633553 -2.69544,-0.633553 z"
         style="font-size:11.2889px;line-height:1.2;font-family:'Gill Sans MT';-inkscape-font-specification:'Gill Sans MT, Normal';text-align:center;letter-spacing:0.79375px;word-spacing:2.64583px;fill:#1a3a2a;fill-opacity:1;stroke:#1a3a2a;stroke-width:0.2;stroke-opacity:1"
         id="path483" />
      <path
         d="m 232.41372,-78.243286 c -1.17225,0 -2.15892,0.381831 -2.96003,1.146183 -0.79742,0.764353 -1.1963,1.706929 -1.1963,2.827735 0,0.705556 0.17437,1.361501 0.52348,1.967838 0.3491,0.606337 0.82315,1.082391 1.42213,1.42782 0.59899,0.345428 1.3286,0.518314 2.1885,0.518314 1.05833,0 1.9919,-0.220485 2.80035,-0.661458 V -72.2297 c -0.8893,0.573265 -1.80081,0.859896 -2.7342,0.859896 -0.89297,0 -1.62609,-0.272104 -2.19935,-0.815971 -0.57327,-0.543866 -0.8599,-1.238396 -0.8599,-2.083593 0,-0.837849 0.29013,-1.533871 0.87075,-2.088762 0.58429,-0.558565 1.3174,-0.838192 2.19935,-0.838192 0.85989,0 1.74034,0.257578 2.64066,0.772046 v -1.185457 c -0.98851,-0.422599 -1.88699,-0.633553 -2.69544,-0.633553 z"
         style="font-size:11.2889px;line-height:1.2;font-family:'Gill Sans MT';-inkscape-font-specification:'Gill Sans MT, Normal';text-align:center;letter-spacing:0.79375px;word-spacing:2.64583px;fill:#1a3a2a;fill-opacity:1;stroke:#1a3a2a;stroke-width:0.2;stroke-opacity:1"
         id="path482" />
      <path
         d="m 177.9695,-78.243286 c -1.17225,0 -2.15893,0.381831 -2.96003,1.146183 -0.79742,0.764353 -1.19631,1.706929 -1.19631,2.827735 0,0.705556 0.17438,1.361501 0.52349,1.967838 0.3491,0.606337 0.82314,1.082391 1.42213,1.42782 0.59899,0.345428 1.3286,0.518314 2.1885,0.518314 1.05833,0 1.99189,-0.220485 2.80034,-0.661458 V -72.2297 c -0.88929,0.573265 -1.8008,0.859896 -2.7342,0.859896 -0.89297,0 -1.62608,-0.272104 -2.19935,-0.815971 -0.57326,-0.543866 -0.85989,-1.238396 -0.85989,-2.083593 0,-0.837849 0.29013,-1.533871 0.87075,-2.088762 0.58429,-0.558565 1.3174,-0.838192 2.19935,-0.838192 0.85989,0 1.74034,0.257578 2.64066,0.772046 v -1.185457 c -0.98851,-0.422599 -1.88699,-0.633553 -2.69544,-0.633553 z"
         style="font-size:11.2889px;line-height:1.2;font-family:'Gill Sans MT';-inkscape-font-specification:'Gill Sans MT, Normal';text-align:center;letter-spacing:0.79375px;word-spacing:2.64583px;fill:#1a3a2a;fill-opacity:1;stroke:#1a3a2a;stroke-width:0.2;stroke-opacity:1"
         id="path481" />
    </g>
    <g
       id="g481"
       transform="matrix(0.76568173,0,0,0.76568173,295.16502,-211.24328)"
       style="stroke:#000000;stroke-width:1.30601"
       inkscape:label="Balls">
      <circle
         cx="-176.44012"
         cy="184.965"
         r="3.95"
         fill="none"
         stroke="#1a3a6e"
         stroke-width="0.529167"
         id="circle478"
         style="fill:#1a1a1a;fill-opacity:1;stroke:#000000;stroke-width:0.130601;stroke-dasharray:none"
         inkscape:label="Black" />
      <circle
         cx="-182.22002"
         cy="179.1851"
         r="3.95"
         fill="none"
         stroke="#1a3a6e"
         stroke-width="0.529167"
         id="circle479"
         style="fill:#ffff00;fill-opacity:1;stroke:#000000;stroke-width:0.130601;stroke-dasharray:none"
         inkscape:label="Yellow" />
      <circle
         cx="-170.66023"
         cy="179.1851"
         r="3.95"
         fill="none"
         stroke="#1a3a6e"
         stroke-width="0.529167"
         id="circle480"
         style="fill:#d40000;fill-opacity:1;stroke:#000000;stroke-width:0.130601;stroke-dasharray:none"
         inkscape:label="Red" />
      <circle
         cx="-176.44012"
         cy="173.40523"
         r="3.95"
         fill="none"
         stroke="#1a3a6e"
         stroke-width="0.529167"
         id="circle481"
         style="fill:#0000ff;fill-opacity:1;stroke:#000000;stroke-width:0.130601;stroke-dasharray:none"
         inkscape:label="Blue" />
    </g>
  </g>
</svg>
