<?xml version="1.0" encoding="UTF-8" standalone="no"?>
<!-- Created with Inkscape (http://www.inkscape.org/) -->

<svg
   width="89.053947mm"
   height="89.053947mm"
   viewBox="0 0 89.053948 89.053949"
   version="1.1"
   id="svg1"
   inkscape:version="1.4.2 (f4327f4, 2025-05-13)"
   sodipodi:docname="main_logo.svg"
   xmlns:inkscape="http://www.inkscape.org/namespaces/inkscape"
   xmlns:sodipodi="http://sodipodi.sourceforge.net/DTD/sodipodi-0.dtd"
   xmlns="http://www.w3.org/2000/svg"
   xmlns:svg="http://www.w3.org/2000/svg">
  <sodipodi:namedview
     id="namedview1"
     pagecolor="#ffffff"
     bordercolor="#000000"
     borderopacity="0.25"
     inkscape:showpageshadow="2"
     inkscape:pageopacity="0.0"
     inkscape:pagecheckerboard="0"
     inkscape:deskcolor="#d1d1d1"
     inkscape:document-units="mm"
     inkscape:zoom="1.0396254"
     inkscape:cx="88.012475"
     inkscape:cy="13.947332"
     inkscape:window-width="2560"
     inkscape:window-height="1369"
     inkscape:window-x="-8"
     inkscape:window-y="-8"
     inkscape:window-maximized="1"
     inkscape:current-layer="g160"
     showguides="true" />
  <defs
     id="defs1">
    <rect
       x="578.0929"
       y="277.02286"
       width="197.66736"
       height="53.865559"
       id="rect58" />
    <clipPath
       id="bc">
      <circle
         cx="340"
         cy="330"
         r="255"
         id="circle1" />
    </clipPath>
    <clipPath
       id="clipPath2">
      <circle
         cx="340"
         cy="330"
         r="255"
         id="circle2" />
    </clipPath>
    <clipPath
       id="clipPath3">
      <circle
         cx="340"
         cy="330"
         r="255"
         id="circle3" />
    </clipPath>
    <clipPath
       id="clipPath4">
      <circle
         cx="340"
         cy="330"
         r="255"
         id="circle4" />
    </clipPath>
    <clipPath
       id="clipPath5">
      <circle
         cx="340"
         cy="330"
         r="255"
         id="circle5" />
    </clipPath>
    <clipPath
       id="clipPath6">
      <circle
         cx="340"
         cy="330"
         r="255"
         id="circle6" />
    </clipPath>
    <clipPath
       id="clipPath7">
      <circle
         cx="340"
         cy="330"
         r="255"
         id="circle7" />
    </clipPath>
    <clipPath
       id="clipPath8">
      <circle
         cx="340"
         cy="330"
         r="255"
         id="circle8" />
    </clipPath>
  </defs>
  <g
     id="g160"
     inkscape:label="Logo 2"
     transform="translate(228.75726,-225.00657)">
    <circle
       style="display:inline;fill:#ffffff;fill-opacity:1;stroke:#1a1a1a;stroke-width:1;stroke-dasharray:none;stroke-opacity:1"
       id="circle261"
       cx="269.53354"
       cy="184.23029"
       r="44.026974"
       transform="rotate(90)"
       inkscape:label="Big circle" />
    <circle
       style="fill:#1a3a2a;fill-opacity:1;stroke:#000000;stroke-width:0.5;stroke-dasharray:none;stroke-opacity:1"
       id="circle262"
       cx="269.53354"
       cy="184.23029"
       transform="rotate(90)"
       r="31.789845"
       inkscape:label="Small circle" />
    <g
       id="g266"
       inkscape:label="Balls"
       transform="translate(-9.1326209,0.40165568)">
      <circle
         cx="-175.09769"
         cy="279.13187"
         r="3.95"
         fill="none"
         stroke="#1a3a6e"
         stroke-width="0.529167"
         id="circle263"
         style="fill:#1a1a1a;fill-opacity:1;stroke:#ffffff;stroke-width:0.0999999;stroke-dasharray:none"
         inkscape:label="Black"
         transform="translate(-5.0000002e-6)" />
      <circle
         cx="-185.11803"
         cy="269.13187"
         r="3.95"
         fill="none"
         stroke="#1a3a6e"
         stroke-width="0.529167"
         id="circle264"
         style="fill:#ffff00;fill-opacity:1;stroke:#ffffff;stroke-width:0.0999999;stroke-dasharray:none"
         inkscape:label="Yellow" />
      <circle
         cx="-175.09769"
         cy="259.13187"
         r="3.95"
         fill="none"
         stroke="#1a3a6e"
         stroke-width="0.529167"
         id="circle265"
         style="fill:#0000ff;fill-opacity:1;stroke:#ffffff;stroke-width:0.0999999;stroke-dasharray:none"
         inkscape:label="Blue"
         transform="translate(-5.0000002e-6)" />
      <circle
         cx="-165.19771"
         cy="269.13187"
         r="3.95"
         fill="none"
         stroke="#1a3a6e"
         stroke-width="0.529167"
         id="circle266"
         style="fill:#d40000;fill-opacity:1;stroke:#ffffff;stroke-width:0.0999999;stroke-dasharray:none"
         inkscape:label="Red" />
    </g>
    <g
       id="g271"
       transform="rotate(-45,-247.7644,115.53967)"
       style="fill:#f7f3ea;fill-opacity:1;stroke:#000000"
       inkscape:label="Mallet Left">
      <path
         d="m -321.20224,294.08223 c -0.0523,-0.005 -0.0928,-0.0494 -0.0928,-0.10304 l 3.7e-4,-5.83593 c 0,-0.0573 0.0461,-0.10341 0.10341,-0.10341 l -0.92046,-3.6e-4 c -0.20976,0 -0.37857,0.1688 -0.37857,0.37856 v 5.28598 c 0,0.20976 0.16881,0.37857 0.37857,0.37857 z"
         style="fill:#f7f3ea;fill-opacity:1;stroke-width:0.0999999"
         id="path266" />
      <path
         d="m -303.1153,294.08223 c -0.0523,-0.005 -0.0928,-0.0494 -0.0928,-0.10304 v -5.83629 c 0,-0.0537 0.0405,-0.0978 0.0928,-0.10305 l -17.48219,3.7e-4 c 0.0523,0.005 0.0924,0.049 0.0924,0.10268 v 5.83629 c 0,0.0537 -0.0405,0.0978 -0.0928,0.10304 z"
         style="fill:#f7f3ea;fill-opacity:1;stroke-width:0.0999999"
         id="path267" />
      <path
         d="m -301.34125,288.15057 c -0.0684,-0.0684 -0.16296,-0.11072 -0.26784,-0.11072 h -0.90183 c 0.0523,0.005 0.0928,0.0494 0.0928,0.10305 v 5.83629 c 0,0.0537 -0.0405,0.0978 -0.0928,0.10304 l 0.90146,3.7e-4 c 0.20976,0 0.37857,-0.16881 0.37857,-0.37857 l 3.6e-4,-5.28562 c 0,-0.10487 -0.0423,-0.19941 -0.11072,-0.26784 z"
         style="fill:#f7f3ea;fill-opacity:1;stroke-width:0.0999999"
         id="path268" />
      <path
         d="m -320.59786,294.08223 c 0.0523,-0.005 0.0928,-0.0494 0.0928,-0.10304 v -5.83629 c 0,-0.0573 -0.0458,-0.10305 -0.10304,-0.10305 h -0.58319 c -0.0573,0 -0.10341,0.0461 -0.10341,0.10341 l -3.7e-4,5.83593 c 0,0.0573 0.0461,0.10341 0.10341,0.10341 h 0.58319 c 0.004,0 0.007,-2e-5 0.0106,-3.7e-4 z"
         style="fill:#f7f3ea;fill-opacity:1;stroke-width:0.0999999"
         id="path269" />
      <path
         d="m -302.51092,294.08223 c 0.0523,-0.005 0.0928,-0.0494 0.0928,-0.10304 v -5.83629 c 0,-0.0537 -0.0405,-0.0978 -0.0928,-0.10305 -0.003,-3e-4 -0.007,-3.6e-4 -0.0106,-3.6e-4 h -0.58319 c -0.003,0 -0.007,6e-5 -0.01,3.6e-4 -0.0523,0.005 -0.0935,0.0494 -0.0935,0.10305 v 5.83629 c 0,0.0573 0.0461,0.10341 0.10341,0.10341 h 0.58319 c 0.004,0 0.007,-2e-5 0.0106,-3.7e-4 z"
         style="fill:#f7f3ea;fill-opacity:1;stroke-width:0.0999999"
         id="path270" />
      <rect
         style="fill:#f7f3ea;fill-opacity:1;stroke:#000000;stroke-width:0.1"
         id="rect270"
         width="1.7999516"
         height="33.27441"
         x="-312.76035"
         y="254.76515"
         ry="0.13913155"
         rx="0" />
      <rect
         style="fill:#f7f3ea;fill-opacity:1;stroke:#000000;stroke-width:0.0999998"
         id="rect271"
         width="2.7225096"
         height="14.519077"
         x="-313.22165"
         y="240.24608"
         ry="0.060709167"
         rx="0" />
    </g>
    <g
       id="g276"
       transform="rotate(45,-248.46267,423.33658)"
       style="fill:#f7f3ea;fill-opacity:1;stroke:#000000"
       inkscape:label="Mallet Right">
      <path
         d="m -302.5218,288.03952 c 0.0573,0 0.10341,0.0461 0.10341,0.10341 v 5.83629 c 0,0.0573 -0.0461,0.10341 -0.10341,0.10341 h 0.91278 c 0.20976,0 0.37857,-0.16881 0.37857,-0.37857 v -5.28598 c 0,-0.20976 -0.16881,-0.37856 -0.37857,-0.37856 z"
         style="fill:#f7f3ea;fill-opacity:1;stroke-width:0.0999999"
         id="path271" />
      <path
         d="m -320.59779,288.04025 c 0.0523,0.005 0.0932,0.049 0.0932,0.10268 v 5.83629 c 0,0.0537 -0.0405,0.0978 -0.0928,0.10304 h 17.48183 c -0.0523,-0.005 -0.0928,-0.0493 -0.0928,-0.10304 v -5.83629 c 0,-0.0537 0.0409,-0.0974 0.0932,-0.10268 z"
         style="fill:#f7f3ea;fill-opacity:1;stroke-width:0.0999999"
         id="path272" />
      <path
         d="m -322.37988,288.15023 c -0.0684,0.0684 -0.11035,0.16334 -0.11035,0.26821 l 3.6e-4,5.28562 c 0,0.20976 0.16881,0.37857 0.37857,0.37857 l 0.9095,-3.7e-4 c -0.0523,-0.005 -0.0928,-0.0493 -0.0928,-0.10304 v -5.83629 c 0,-0.0537 0.0402,-0.0974 0.0924,-0.10268 l -0.9095,-3.7e-4 c -0.10488,0 -0.19977,0.0419 -0.26821,0.11035 z"
         style="fill:#f7f3ea;fill-opacity:1;stroke-width:0.0999999"
         id="path273" />
      <path
         d="m -321.20217,288.04025 c -0.0523,0.005 -0.0924,0.049 -0.0924,0.10268 v 5.83629 c 0,0.0573 0.0461,0.10341 0.10341,0.10341 h 0.58319 c 0.0573,0 0.10341,-0.0461 0.10341,-0.10341 v -5.83629 c 0,-0.0573 -0.0461,-0.10341 -0.10341,-0.10341 h -0.58319 c -0.004,0 -0.007,3.8e-4 -0.011,7.3e-4 z"
         style="fill:#f7f3ea;fill-opacity:1;stroke-width:0.0999999"
         id="path274" />
      <path
         d="m -303.11523,288.04025 c -0.0523,0.005 -0.0932,0.049 -0.0932,0.10268 v 5.83629 c 0,0.0573 0.0461,0.10341 0.10341,0.10341 h 0.58319 c 0.0573,0 0.10341,-0.0461 0.10341,-0.10341 v -5.83629 c 0,-0.0573 -0.0461,-0.10341 -0.10341,-0.10341 h -0.58319 c -0.003,1e-5 -0.007,3.9e-4 -0.0102,7.3e-4 z"
         style="fill:#f7f3ea;fill-opacity:1;stroke-width:0.0999999"
         id="path275" />
      <rect
         style="fill:#f7f3ea;fill-opacity:1;stroke:#000000;stroke-width:0.1"
         id="rect275"
         width="1.7999516"
         height="33.27441"
         x="-312.76035"
         y="254.76515"
         ry="0.13913155"
         rx="0" />
      <rect
         style="fill:#f7f3ea;fill-opacity:1;stroke:#000000;stroke-width:0.0999998"
         id="rect276"
         width="2.7225096"
         height="14.519077"
         x="-313.22165"
         y="240.24608"
         ry="0.060709167"
         rx="0" />
    </g>
    <g
       id="g535"
       inkscape:label="West Sussex">
      <path
         style="font-weight:bold;font-size:7.76111px;line-height:1.2;font-family:Sans;-inkscape-font-specification:'Sans, Bold';text-align:center;letter-spacing:1.5875px;word-spacing:2.64583px;text-anchor:middle;fill:#1a1a1a;stroke-width:0.2;stroke-opacity:0.582921"
         d="m -154.06253,296.97279 -0.96383,0.93312 -2.38338,-0.60941 0.53197,2.40185 -0.90393,0.87513 -0.667,-3.33132 -3.10234,-0.73093 0.93115,-0.90149 2.24415,0.6018 -0.5452,-2.24663 0.90937,-0.8804 0.66135,3.18383 z"
         id="path387" />
      <path
         style="font-weight:bold;font-size:7.76111px;line-height:1.2;font-family:Sans;-inkscape-font-specification:'Sans, Bold';text-align:center;letter-spacing:1.5875px;word-spacing:2.64583px;text-anchor:middle;fill:#1a1a1a;stroke-width:0.2;stroke-opacity:0.582921"
         d="m -159.40705,301.82988 -2.60951,1.83628 -3.18841,-4.53101 2.60952,-1.83628 0.55393,0.78719 -1.64877,1.16022 0.70006,0.99484 1.5341,-1.07952 0.55393,0.78719 -1.5341,1.07952 0.82219,1.1684 1.64877,-1.16022 z"
         id="path386" />
      <path
         style="font-weight:bold;font-size:7.76111px;line-height:1.2;font-family:Sans;-inkscape-font-specification:'Sans, Bold';text-align:center;letter-spacing:1.5875px;word-spacing:2.64583px;text-anchor:middle;fill:#1a1a1a;stroke-width:0.2;stroke-opacity:0.582921"
         d="m -164.92317,303.65137 q 0.33865,0.66958 0.0501,1.29967 -0.28522,0.62838 -1.14416,1.06282 -0.79132,0.40022 -1.55053,0.4105 l -0.49259,-0.97392 q 0.61338,-0.0299 1.00449,-0.1131 0.39449,-0.0849 0.68193,-0.23024 0.34493,-0.17446 0.46084,-0.3987 0.11929,-0.22596 -0.0124,-0.48635 -0.0735,-0.14541 -0.21115,-0.21596 -0.13931,-0.0739 -0.35127,-0.0984 -0.20858,-0.0261 -0.80847,-0.0115 -0.56089,0.0161 -0.88667,-0.0654 -0.32577,-0.0816 -0.59274,-0.27352 -0.26696,-0.19198 -0.44313,-0.54029 -0.33181,-0.65604 -0.0787,-1.25547 0.25653,-0.60113 1.04108,-0.99794 0.38551,-0.19498 0.78,-0.27984 0.39788,-0.0866 0.86381,-0.11415 l 0.074,0.98602 q -0.47775,0.0378 -0.77064,0.10524 -0.2895,0.0657 -0.53974,0.19231 -0.29759,0.15051 -0.38641,0.36955 -0.0888,0.21903 0.0241,0.44222 0.0701,0.13865 0.1874,0.21099 0.11557,0.069 0.30382,0.0969 0.18992,0.0229 0.84064,0.008 0.86086,-0.0192 1.2872,0.18558 0.42462,0.20141 0.6692,0.68499 z"
         id="path385" />
      <path
         style="font-weight:bold;font-size:7.76111px;line-height:1.2;font-family:Sans;-inkscape-font-specification:'Sans, Bold';text-align:center;letter-spacing:1.5875px;word-spacing:2.64583px;text-anchor:middle;fill:#1a1a1a;stroke-width:0.2;stroke-opacity:0.582921"
         d="m -170.02095,306.06963 q 0.23902,0.71125 -0.13704,1.29339 -0.37247,0.58093 -1.28488,0.88756 -0.84057,0.28248 -1.5934,0.18366 l -0.34767,-1.03454 q 0.61131,0.0584 1.01031,0.0323 0.40259,-0.0274 0.70793,-0.12996 0.3664,-0.12314 0.5133,-0.32842 0.15049,-0.20649 0.0575,-0.48309 -0.0519,-0.15446 -0.17796,-0.24403 -0.12726,-0.0932 -0.33352,-0.14778 -0.20266,-0.0558 -0.79843,-0.12747 -0.55741,-0.0645 -0.8681,-0.19201 -0.31069,-0.12746 -0.54733,-0.35577 -0.23665,-0.22831 -0.36099,-0.59831 -0.23419,-0.69688 0.10238,-1.25376 0.34017,-0.55808 1.17356,-0.83815 0.40951,-0.13762 0.8121,-0.16497 0.40618,-0.0286 0.87125,0.011 l -0.0683,0.98644 q -0.47823,-0.0312 -0.77777,-0.006 -0.29594,0.0235 -0.56176,0.11283 -0.31611,0.10623 -0.43545,0.31025 -0.11934,0.20402 -0.0397,0.4411 0.0495,0.14728 0.15517,0.2357 0.10447,0.0848 0.28675,0.13951 0.18468,0.0499 0.8308,0.12858 0.8547,0.10456 1.24722,0.36844 0.39131,0.26029 0.56394,0.77397 z"
         id="path384" />
      <path
         style="font-weight:bold;font-size:7.76111px;line-height:1.2;font-family:Sans;-inkscape-font-specification:'Sans, Bold';text-align:center;letter-spacing:1.5875px;word-spacing:2.64583px;text-anchor:middle;fill:#1a1a1a;stroke-width:0.2;stroke-opacity:0.582921"
         d="m -176.36394,303.87491 0.57326,3.53883 q 0.0982,0.60602 -0.10099,1.10664 -0.19541,0.50001 -0.66851,0.82619 -0.47311,0.32617 -1.17265,0.43949 -1.05491,0.17088 -1.72575,-0.27326 -0.67143,-0.44789 -0.82353,-1.38684 l -0.57084,-3.52388 1.15592,-0.18724 0.54235,3.34805 q 0.10241,0.6322 0.40466,0.88652 0.30225,0.25432 0.88957,0.15918 0.5686,-0.0921 0.77511,-0.42884 0.20964,-0.34108 0.10662,-0.97702 l -0.54114,-3.34057 z"
         id="path383" />
      <path
         style="font-weight:bold;font-size:7.76111px;line-height:1.2;font-family:Sans;-inkscape-font-specification:'Sans, Bold';text-align:center;letter-spacing:1.5875px;word-spacing:2.64583px;text-anchor:middle;fill:#1a1a1a;stroke-width:0.2;stroke-opacity:0.582921"
         d="m -182.51796,308.69805 q -0.002,0.75034 -0.54547,1.18072 -0.53943,0.43039 -1.50198,0.42749 -0.88677,-0.003 -1.56789,-0.33821 l 0.003,-1.0914 q 0.56011,0.2518 0.94634,0.35529 0.39002,0.10349 0.71213,0.10446 0.38654,10e-4 0.59162,-0.14601 0.20887,-0.14717 0.20975,-0.43896 5e-4,-0.16296 -0.0901,-0.28829 -0.0906,-0.12912 -0.26831,-0.24713 -0.17397,-0.118 -0.71511,-0.37733 -0.50708,-0.24027 -0.76032,-0.46084 -0.25324,-0.22056 -0.40394,-0.51281 -0.15071,-0.29226 -0.14953,-0.68258 0.002,-0.73518 0.49992,-1.15433 0.50149,-0.41914 1.38067,-0.41649 0.43202,0.001 0.82204,0.1048 0.39381,0.10351 0.82147,0.29049 l -0.38171,0.91214 q -0.44284,-0.18323 -0.73442,-0.25611 -0.28779,-0.0729 -0.56822,-0.0737 -0.33348,-10e-4 -0.51206,0.15383 -0.17858,0.15484 -0.17933,0.40495 -4.7e-4,0.15537 0.0712,0.27307 0.0717,0.1139 0.2267,0.22427 0.15884,0.10659 0.74538,0.38879 0.77575,0.37372 1.06263,0.74976 0.28689,0.37224 0.28525,0.91415 z"
         id="path382" />
      <path
         style="font-weight:bold;font-size:7.76111px;line-height:1.2;font-family:Sans;-inkscape-font-specification:'Sans, Bold';text-align:center;letter-spacing:1.5875px;word-spacing:2.64583px;text-anchor:middle;fill:#1a1a1a;stroke-width:0.2;stroke-opacity:0.582921"
         d="m -195.82638,308.54871 -1.12115,-0.35091 1.3629,-4.35438 -1.43578,-0.44939 0.29205,-0.93308 3.99271,1.2497 -0.29205,0.93308 -1.43578,-0.44939 z"
         id="path381" />
      <path
         style="font-weight:bold;font-size:7.76111px;line-height:1.2;font-family:Sans;-inkscape-font-specification:'Sans, Bold';text-align:center;letter-spacing:1.5875px;word-spacing:2.64583px;text-anchor:middle;fill:#1a1a1a;stroke-width:0.2;stroke-opacity:0.582921"
         d="m -199.61828,305.58908 q -0.32643,0.67561 -1.00232,0.82885 -0.67248,0.15488 -1.53918,-0.26388 -0.79845,-0.38579 -1.26756,-0.98282 l 0.47481,-0.98271 q 0.39619,0.46921 0.69972,0.7295 0.30695,0.26194 0.59698,0.40208 0.34805,0.16816 0.5966,0.12411 0.25197,-0.0424 0.37892,-0.30514 0.0709,-0.14672 0.0434,-0.29889 -0.0258,-0.15558 -0.13511,-0.33885 -0.10585,-0.18162 -0.48168,-0.6494 -0.35337,-0.43589 -0.48637,-0.74426 -0.13299,-0.30836 -0.14253,-0.63705 -0.01,-0.32868 0.16027,-0.68014 0.31984,-0.66196 0.94983,-0.82474 0.63341,-0.16113 1.42504,0.22135 0.38899,0.18795 0.69593,0.44989 0.31036,0.26359 0.61515,0.61709 l -0.73854,0.65747 q -0.3201,-0.35668 -0.55151,-0.54846 -0.228,-0.19013 -0.4805,-0.31213 -0.30028,-0.14508 -0.52824,-0.0827 -0.22797,0.0624 -0.33678,0.28762 -0.0676,0.1399 -0.0539,0.277 0.0154,0.13369 0.10746,0.30024 0.0971,0.16479 0.50404,0.67283 0.53793,0.67237 0.63404,1.13547 0.0978,0.4597 -0.138,0.94764 z"
         id="path380" />
      <path
         style="font-weight:bold;font-size:7.76111px;line-height:1.2;font-family:Sans;-inkscape-font-specification:'Sans, Bold';text-align:center;letter-spacing:1.5875px;word-spacing:2.64583px;text-anchor:middle;fill:#1a1a1a;stroke-width:0.2;stroke-opacity:0.582921"
         d="m -205.62261,304.19788 -2.64244,-1.78857 3.10557,-4.58819 2.64244,1.78857 -0.53954,0.79713 -1.66957,-1.13007 -0.68187,1.00739 1.55346,1.05148 -0.53955,0.79713 -1.55346,-1.05148 -0.80082,1.18314 1.66958,1.13007 z"
         id="path379" />
      <path
         style="font-weight:bold;font-size:7.76111px;line-height:1.2;font-family:Sans;-inkscape-font-specification:'Sans, Bold';text-align:center;letter-spacing:1.5875px;word-spacing:2.64583px;text-anchor:middle;fill:#1a1a1a;stroke-width:0.2;stroke-opacity:0.582921"
         d="m -211.17612,300.123 -0.95135,-0.94045 1.51246,-2.5973 q 0.0796,-0.13981 0.34783,-0.55671 0.27361,-0.41693 0.38005,-0.54617 -0.16003,0.12955 -0.54441,0.38902 -0.38172,0.25677 -0.55263,0.35958 l -2.57168,1.53957 -0.94866,-0.93779 2.88976,-4.9339 0.822,0.81257 -1.62204,2.64885 q -0.45672,0.72616 -0.82903,1.22137 0.16803,-0.13764 0.54166,-0.4024 0.379,-0.2648 0.60604,-0.39205 l 2.756,-1.63978 0.78965,0.7806 -1.60791,2.77472 q -0.1088,0.18552 -0.35325,0.54601 -0.24446,0.36049 -0.43061,0.6081 0.23475,-0.18358 0.60309,-0.43759 0.371,-0.25671 0.61133,-0.4028 l 2.62729,-1.65511 0.82199,0.81257 z"
         id="text304" />
    </g>
    <g
       id="g534"
       inkscape:label="Crawley Croquet Club">
      <path
         style="font-weight:bold;font-size:7.76111px;line-height:1.2;font-family:'Gill Sans MT';-inkscape-font-specification:'Gill Sans MT, Bold';text-align:center;letter-spacing:0.79375px;word-spacing:2.64583px;text-anchor:middle;stroke:#000000;stroke-width:0.2"
         d="m -144.02392,274.86618 -0.41905,2.25023 q -0.14986,0.80472 -0.62266,1.19081 -0.47348,0.38981 -1.00251,0.2913 -0.67805,-0.12627 -0.90692,-0.90515 -0.24148,0.51011 -0.65186,0.72665 -0.41107,0.22026 -0.88794,0.13146 -0.67805,-0.12627 -1.01604,-0.67106 -0.33799,-0.54478 -0.1694,-1.45009 l 0.47178,-2.53338 z m -1.19519,1.11888 -1.11394,-0.20745 -0.12627,0.67806 q -0.0583,0.31294 0.0693,0.51788 0.12759,0.20493 0.36976,0.25003 0.23843,0.0444 0.42751,-0.10156 0.18908,-0.14596 0.24736,-0.45891 z m -2.06768,-0.38506 -1.22943,-0.22895 -0.13598,0.73021 q -0.0964,0.51785 0.003,0.77148 0.10297,0.25431 0.4569,0.32022 0.27196,0.0507 0.46868,-0.13629 0.20044,-0.18625 0.26773,-0.54763 z"
         id="path378" />
      <path
         style="font-weight:bold;font-size:7.76111px;line-height:1.2;font-family:'Gill Sans MT';-inkscape-font-specification:'Gill Sans MT, Bold';text-align:center;letter-spacing:0.79375px;word-spacing:2.64583px;text-anchor:middle;stroke:#000000;stroke-width:0.2"
         d="m -143.71983,270.60756 0.008,1.31876 -3.0051,0.0184 q -1.1596,0.007 -1.76255,-0.67512 -0.60296,-0.68223 -0.61077,-1.95551 -0.008,-1.25813 0.59433,-1.95912 0.60207,-0.69721 1.73893,-0.70418 l 3.01267,-0.0185 0.008,1.32255 -3.04299,0.0187 q -0.55327,0.003 -0.88454,0.36545 -0.33125,0.36584 -0.32764,0.95322 0.004,0.61011 0.34703,0.97181 0.34331,0.3655 0.97238,0.36164 z"
         id="path377" />
      <path
         style="font-weight:bold;font-size:7.76111px;line-height:1.2;font-family:'Gill Sans MT';-inkscape-font-specification:'Gill Sans MT, Bold';text-align:center;letter-spacing:0.79375px;word-spacing:2.64583px;text-anchor:middle;stroke:#000000;stroke-width:0.2"
         d="m -148.26656,264.99943 -0.95318,0.18059 -0.75128,-3.96539 5.20155,-0.98547 0.24549,1.29573 -4.24837,0.80489 z"
         id="path376" />
      <path
         style="font-weight:bold;font-size:7.76111px;line-height:1.2;font-family:'Gill Sans MT';-inkscape-font-specification:'Gill Sans MT, Bold';text-align:center;letter-spacing:0.79375px;word-spacing:2.64583px;text-anchor:middle;stroke:#000000;stroke-width:0.2"
         d="m -148.90245,258.84131 -1.08068,0.40996 q -0.84467,-0.74149 -1.23044,-1.7584 -0.50001,-1.31807 -0.0707,-2.37667 0.4342,-1.0564 1.50071,-1.46099 1.06651,-0.40458 2.12242,0.13518 1.05726,0.5433 1.56131,1.87201 0.4019,1.05942 0.24431,1.9582 l -1.10194,0.41802 q 0.16527,-1.09219 -0.13984,-1.8965 -0.29975,-0.79014 -0.9158,-1.13198 -0.61116,-0.33964 -1.26666,-0.091 -0.65904,0.25001 -0.90093,0.90516 -0.24056,0.65869 0.0525,1.43111 0.14516,0.38267 0.37879,0.69936 0.23716,0.31534 0.84699,0.88652 z"
         id="path375" />
      <path
         style="font-weight:bold;font-size:7.76111px;line-height:1.2;font-family:'Gill Sans MT';-inkscape-font-specification:'Gill Sans MT, Bold';text-align:center;letter-spacing:0.79375px;word-spacing:2.64583px;text-anchor:middle;stroke:#000000;stroke-width:0.2"
         d="m -151.79269,245.14185 -0.73677,0.63114 -1.2475,-1.45626 -3.28379,2.81303 -0.85796,-1.00155 3.28379,-2.81303 -1.2475,-1.45626 0.73677,-0.63115 z"
         id="path374" />
      <path
         style="font-weight:bold;font-size:7.76111px;line-height:1.2;font-family:'Gill Sans MT';-inkscape-font-specification:'Gill Sans MT, Bold';text-align:center;letter-spacing:0.79375px;word-spacing:2.64583px;text-anchor:middle;stroke:#000000;stroke-width:0.2"
         d="m -159.60487,242.94954 -0.61803,0.74781 -3.00874,-2.48661 3.37261,-4.08078 2.96784,2.45281 -0.61803,0.7478 -1.9513,-1.61267 -0.70735,0.85588 1.86074,1.53783 -0.61803,0.7478 -1.86074,-1.53783 -0.81116,0.98149 z"
         id="path373" />
      <path
         style="font-weight:bold;font-size:7.76111px;line-height:1.2;font-family:'Gill Sans MT';-inkscape-font-specification:'Gill Sans MT, Bold';text-align:center;letter-spacing:0.79375px;word-spacing:2.64583px;text-anchor:middle;stroke:#000000;stroke-width:0.2"
         d="m -163.39318,234.7763 1.15262,0.64082 -1.46026,2.62652 q -0.56348,1.01351 -1.45392,1.20353 -0.89044,0.19002 -2.00332,-0.42871 -1.09963,-0.61135 -1.41443,-1.48012 -0.31149,-0.86692 0.24094,-1.86056 l 1.46395,-2.63315 1.15593,0.64267 -1.47867,2.65964 q -0.26885,0.48357 -0.11625,0.94997 0.15592,0.46825 0.6693,0.75367 0.53325,0.29647 1.01695,0.17516 0.487,-0.11947 0.79268,-0.66929 z"
         id="path372" />
      <path
         style="font-weight:bold;font-size:7.76111px;line-height:1.2;font-family:'Gill Sans MT';-inkscape-font-specification:'Gill Sans MT, Bold';text-align:center;letter-spacing:0.79375px;word-spacing:2.64583px;text-anchor:middle;stroke:#000000;stroke-width:0.2"
         d="m -171.08015,236.98096 0.0475,0.12952 -1.2433,0.53819 q -0.39688,-0.15347 -0.79273,-0.41365 -0.37271,-0.24516 -0.73184,-0.57335 -0.33962,-0.31428 -0.65198,-0.69155 -0.23092,-0.28094 -0.58499,-0.54812 -0.29301,-0.2207 -0.53064,-0.53144 -0.24629,-0.32133 -0.39203,-0.69901 -0.15831,-0.40136 -0.1815,-0.81676 -0.0266,-0.45607 0.10682,-0.89083 0.32233,-1.05065 1.38593,-1.58452 1.06834,-0.53637 2.33637,-0.14735 1.28614,0.39458 1.84562,1.4264 0.55947,1.03182 0.24936,2.04262 -0.25119,0.81878 -0.9721,1.34679 -0.71729,0.52913 -1.66653,0.5352 0.54378,0.57908 1.26112,0.79916 0.27897,0.0856 0.51495,0.0787 z m -1.57036,-5.17904 q -0.72096,-0.22119 -1.29523,0.0743 -0.56953,0.29301 -0.78405,0.99224 -0.21341,0.6956 0.0938,1.2576 0.31084,0.56311 1.03181,0.7843 0.71009,0.21785 1.28465,-0.0657 0.57566,-0.28717 0.79241,-0.99364 0.21896,-0.71372 -0.10497,-1.27291 -0.3192,-0.56171 -1.01843,-0.77623 z"
         id="path371" />
      <path
         style="font-weight:bold;font-size:7.76111px;line-height:1.2;font-family:'Gill Sans MT';-inkscape-font-specification:'Gill Sans MT, Bold';text-align:center;letter-spacing:0.79375px;word-spacing:2.64583px;text-anchor:middle;stroke:#000000;stroke-width:0.2"
         d="m -180.88931,229.09999 q 1.34822,0.11226 2.11492,0.99748 0.767,0.88145 0.67707,1.96154 -0.0912,1.0952 -1.00411,1.82916 -0.91292,0.73397 -2.23849,0.62359 -1.34067,-0.11163 -2.11617,-0.98237 -0.7755,-0.87075 -0.68369,-1.9735 0.0902,-1.08387 0.99247,-1.82633 0.906,-0.74214 2.258,-0.62957 z m -0.35942,4.31658 q 0.74776,0.0623 1.24151,-0.34155 0.49407,-0.40758 0.55413,-1.1289 0.0604,-0.72509 -0.3598,-1.205 -0.42017,-0.4799 -1.16792,-0.54216 -0.75154,-0.0626 -1.24906,0.34092 -0.49375,0.4038 -0.55413,1.1289 -0.0601,0.72132 0.3598,1.205 0.42394,0.48021 1.17547,0.54279 z"
         id="path370" />
      <path
         style="font-weight:bold;font-size:7.76111px;line-height:1.2;font-family:'Gill Sans MT';-inkscape-font-specification:'Gill Sans MT, Bold';text-align:center;letter-spacing:0.79375px;word-spacing:2.64583px;text-anchor:middle;stroke:#000000;stroke-width:0.2"
         d="m -190.62407,229.488 2.35072,-0.25688 q 0.76474,-0.0836 1.29175,0.30867 0.5266,0.38848 0.59535,1.01759 0.0951,0.87022 -0.76333,1.38718 0.41867,0.13342 0.85923,0.88583 0.44434,0.752 0.85242,1.41647 l -1.44283,0.15767 q -0.15649,-0.24594 -0.55656,-0.94178 -0.39631,-0.69625 -0.64875,-0.87833 -0.24867,-0.1825 -0.50861,-0.15409 l -0.37672,0.0412 0.23342,2.13599 -1.31097,0.14327 z m 1.41637,0.82114 0.13091,1.19796 0.69316,-0.0757 q 0.33152,-0.0362 0.50676,-0.21168 0.17861,-0.17963 0.14691,-0.4697 -0.0651,-0.59521 -0.81472,-0.51329 z"
         id="path369" />
      <path
         style="font-weight:bold;font-size:7.76111px;line-height:1.2;font-family:'Gill Sans MT';-inkscape-font-specification:'Gill Sans MT, Bold';text-align:center;letter-spacing:0.79375px;word-spacing:2.64583px;text-anchor:middle;stroke:#000000;stroke-width:0.2"
         d="m -192.33746,233.52443 0.33066,1.10752 q -0.80068,0.78879 -1.84284,1.09994 -1.35081,0.4033 -2.37556,-0.1015 -1.0222,-0.50952 -1.34853,-1.60251 -0.32633,-1.093 0.28844,-2.10707 0.6184,-1.01517 1.98011,-1.42172 1.08573,-0.32416 1.97074,-0.10194 l 0.33717,1.12931 q -1.07736,-0.24389 -1.90164,0.002 -0.80977,0.24176 -1.1953,0.83146 -0.38299,0.58498 -0.18242,1.25675 0.20165,0.67541 0.83757,0.96409 0.63955,0.28759 1.43116,0.0513 0.39217,-0.11709 0.72494,-0.32718 0.33168,-0.21372 0.9455,-0.78061 z"
         id="path368" />
      <path
         style="font-weight:bold;font-size:7.76111px;line-height:1.2;font-family:'Gill Sans MT';-inkscape-font-specification:'Gill Sans MT, Bold';text-align:center;letter-spacing:0.79375px;word-spacing:2.64583px;text-anchor:middle;stroke:#000000;stroke-width:0.2"
         d="m -205.63675,241.57149 -1.4672,-1.99275 -3.35313,-1.03243 1.28781,-0.94817 1.91103,0.65889 -0.0556,-2.02498 1.2817,-0.94368 -0.01,3.50847 1.4672,1.99274 z"
         id="path367" />
      <path
         style="font-weight:bold;font-size:7.76111px;line-height:1.2;font-family:'Gill Sans MT';-inkscape-font-specification:'Gill Sans MT, Bold';text-align:center;letter-spacing:0.79375px;word-spacing:2.64583px;text-anchor:middle;stroke:#000000;stroke-width:0.2"
         d="m -208.89655,242.98739 0.69945,0.67227 -2.70483,2.81418 -3.8169,-3.66859 2.66806,-2.77593 0.69945,0.67227 -1.7542,1.82512 0.80054,0.76943 1.67279,-1.74042 0.69945,0.67227 -1.6728,1.74042 0.91803,0.88235 z"
         id="path366" />
      <path
         style="font-weight:bold;font-size:7.76111px;line-height:1.2;font-family:'Gill Sans MT';-inkscape-font-specification:'Gill Sans MT, Bold';text-align:center;letter-spacing:0.79375px;word-spacing:2.64583px;text-anchor:middle;stroke:#000000;stroke-width:0.2"
         d="m -212.7081,247.10667 0.7978,0.55198 -2.29635,3.31897 -4.35361,-3.01221 0.75036,-1.0845 3.55581,2.46021 z"
         id="path365" />
      <path
         style="font-weight:bold;font-size:7.76111px;line-height:1.2;font-family:'Gill Sans MT';-inkscape-font-specification:'Gill Sans MT, Bold';text-align:center;letter-spacing:0.79375px;word-spacing:2.64583px;text-anchor:middle;stroke:#000000;stroke-width:0.2"
         d="m -219.97608,254.98373 2.56876,2.82847 -0.21647,0.5256 -5.84434,0.10944 0.53252,-1.293 3.17993,-0.0387 -2.18704,-2.37207 0.40408,-0.98114 3.22322,-0.14384 -2.23322,-2.25994 0.53252,-1.293 4.07504,4.18654 -0.21647,0.52561 z"
         id="path364" />
      <path
         style="font-weight:bold;font-size:7.76111px;line-height:1.2;font-family:'Gill Sans MT';-inkscape-font-specification:'Gill Sans MT, Bold';text-align:center;letter-spacing:0.79375px;word-spacing:2.64583px;text-anchor:middle;stroke:#000000;stroke-width:0.2"
         d="m -224.07002,262.1877 5.60412,-1.46338 -0.22897,1.39869 -1.1026,0.2611 -0.38266,2.33739 0.96852,0.55792 -0.22592,1.37999 -4.87983,-2.96082 z m 3.29697,0.43222 -2.16848,0.50902 1.90521,1.09911 z"
         id="path363" />
      <path
         style="font-weight:bold;font-size:7.76111px;line-height:1.2;font-family:'Gill Sans MT';-inkscape-font-specification:'Gill Sans MT, Bold';text-align:center;letter-spacing:0.79375px;word-spacing:2.64583px;text-anchor:middle;stroke:#000000;stroke-width:0.2"
         d="m -224.69429,272.23728 -0.0391,-2.36439 q -0.0127,-0.76919 0.42645,-1.25779 0.43538,-0.48853 1.06815,-0.49899 0.87528,-0.0145 1.31089,0.88798 0.17146,-0.40459 0.96128,-0.77391 0.78976,-0.3731 1.48902,-0.71819 l 0.024,1.45122 q -0.25931,0.13315 -0.98908,0.46737 -0.72982,0.33042 -0.9344,0.565 -0.20465,0.23079 -0.20033,0.49224 l 0.006,0.3789 2.14841,-0.0355 0.0218,1.31861 z m 0.94823,-1.33463 1.20493,-0.0199 -0.0115,-0.69719 q -0.006,-0.33344 -0.16405,-0.52412 -0.1624,-0.1944 -0.45416,-0.18958 -0.59867,0.01 -0.58622,0.76391 z"
         id="path362" />
      <path
         style="font-weight:bold;font-size:7.76111px;line-height:1.2;font-family:'Gill Sans MT';-inkscape-font-specification:'Gill Sans MT, Bold';text-align:center;letter-spacing:0.79375px;word-spacing:2.64583px;text-anchor:middle;stroke:#000000;stroke-width:0.2"
         d="m -220.82953,274.31669 1.1331,-0.22809 q 0.71233,0.8694 0.92696,1.93563 0.2782,1.38201 -0.31812,2.35635 -0.60078,0.97137 -1.71902,1.19647 -1.11824,0.2251 -2.07191,-0.47975 -0.95441,-0.70857 -1.23485,-2.10173 -0.22361,-1.11081 0.0786,-1.97181 l 1.15539,-0.23258 q -0.34131,1.05057 -0.17155,1.89389 0.16677,0.82847 0.71877,1.26627 0.54754,0.43483 1.23483,0.29648 0.69101,-0.13909 1.03658,-0.74598 0.34483,-0.6106 0.1818,-1.42049 -0.0808,-0.40123 -0.25957,-0.75179 -0.18252,-0.34983 -0.69096,-1.01287 z"
         id="text218" />
    </g>
  </g>
</svg>
