<svg xmlns="http://www.w3.org/2000/svg" width="336.582" height="336.582" viewBox="0 0 89.054 89.054"><g transform="translate(228.757 -225.007)"><circle cx="269.534" cy="184.23" r="44.027" style="display:inline;fill:#fff;fill-opacity:1;stroke:#1a1a1a;stroke-width:1;stroke-dasharray:none;stroke-opacity:1" transform="rotate(90)"/><circle cx="269.534" cy="184.23" r="31.79" style="fill:#1a3a2a;fill-opacity:1;stroke:#000;stroke-width:.5;stroke-dasharray:none;stroke-opacity:1" transform="rotate(90)"/><g fill="none" stroke="#1a3a6e" stroke-width=".529" transform="translate(-9.133 .402)"><circle cx="-175.098" cy="279.132" r="3.95" style="fill:#1a1a1a;fill-opacity:1;stroke:#fff;stroke-width:.0999999;stroke-dasharray:none"/><circle cx="-185.118" cy="269.132" r="3.95" style="fill:#ff0;fill-opacity:1;stroke:#fff;stroke-width:.0999999;stroke-dasharray:none"/><circle cx="-175.098" cy="259.132" r="3.95" style="fill:#00f;fill-opacity:1;stroke:#fff;stroke-width:.0999999;stroke-dasharray:none"/><circle cx="-165.198" cy="269.132" r="3.95" style="fill:#d40000;fill-opacity:1;stroke:#fff;stroke-width:.0999999;stroke-dasharray:none"/></g><g style="fill:#f7f3ea;fill-opacity:1;stroke:#000" transform="rotate(-45 -247.764 115.54)"><path d="M-321.202 294.082a.103.103 0 0 1-.093-.103v-5.836c0-.057.046-.103.104-.103h-.92a.38.38 0 0 0-.38.378v5.286c0 .21.17.379.38.379zM-303.115 294.082a.103.103 0 0 1-.093-.103v-5.836c0-.054.04-.098.093-.103h-17.482a.1.1 0 0 1 .092.103v5.836c0 .054-.04.098-.093.103zM-301.341 288.15a.38.38 0 0 0-.268-.11h-.902c.052.005.093.05.093.103v5.836c0 .054-.04.098-.093.103h.902c.21 0 .378-.168.378-.378v-5.286c0-.104-.042-.199-.11-.267z" style="fill:#f7f3ea;fill-opacity:1;stroke-width:.0999999"/><path d="M-320.598 294.082a.103.103 0 0 0 .093-.103v-5.836a.103.103 0 0 0-.103-.103h-.583a.103.103 0 0 0-.104.103v5.836c0 .057.046.104.103.104h.594zM-302.51 294.082a.103.103 0 0 0 .092-.103v-5.836a.103.103 0 0 0-.104-.104h-.593a.104.104 0 0 0-.093.104v5.836c0 .057.046.104.103.104h.594z" style="fill:#f7f3ea;fill-opacity:1;stroke-width:.0999999"/><rect width="1.8" height="33.274" x="-312.76" y="254.765" rx="0" ry=".139" style="fill:#f7f3ea;fill-opacity:1;stroke:#000;stroke-width:.1"/><rect width="2.723" height="14.519" x="-313.222" y="240.246" rx="0" ry=".061" style="fill:#f7f3ea;fill-opacity:1;stroke:#000;stroke-width:.0999998"/></g><g style="fill:#f7f3ea;fill-opacity:1;stroke:#000" transform="rotate(45 -248.463 423.337)"><path d="M-302.522 288.04c.058 0 .104.046.104.103v5.836a.103.103 0 0 1-.104.104h.913c.21 0 .379-.17.379-.379v-5.286a.38.38 0 0 0-.379-.378zM-320.598 288.04a.103.103 0 0 1 .093.103v5.836c0 .054-.04.098-.092.103h17.481a.103.103 0 0 1-.092-.103v-5.836c0-.054.04-.097.093-.103zM-322.38 288.15a.38.38 0 0 0-.11.268v5.286c0 .21.169.379.379.379h.91a.103.103 0 0 1-.094-.104v-5.836c0-.054.04-.097.093-.103h-.91c-.105 0-.2.042-.268.11z" style="fill:#f7f3ea;fill-opacity:1;stroke-width:.0999999"/><path d="M-321.202 288.04a.1.1 0 0 0-.093.103v5.836c0 .058.047.104.104.104h.583a.103.103 0 0 0 .103-.104v-5.836a.103.103 0 0 0-.103-.103h-.594zM-303.115 288.04a.103.103 0 0 0-.093.103v5.836c0 .058.046.104.103.104h.583a.103.103 0 0 0 .104-.104v-5.836a.103.103 0 0 0-.104-.103h-.593z" style="fill:#f7f3ea;fill-opacity:1;stroke-width:.0999999"/><rect width="1.8" height="33.274" x="-312.76" y="254.765" rx="0" ry=".139" style="fill:#f7f3ea;fill-opacity:1;stroke:#000;stroke-width:.1"/><rect width="2.723" height="14.519" x="-313.222" y="240.246" rx="0" ry=".061" style="fill:#f7f3ea;fill-opacity:1;stroke:#000;stroke-width:.0999998"/></g><path d="m-154.063 296.973-.963.933-2.384-.61.532 2.402-.904.875-.667-3.33-3.102-.732.931-.901 2.244.602-.545-2.247.91-.88.66 3.183zM-159.407 301.83l-2.61 1.836-3.188-4.53 2.61-1.837.553.787-1.648 1.16.7.995 1.534-1.08.554.788-1.534 1.08.822 1.168 1.649-1.16zM-164.923 303.651q.338.67.05 1.3-.285.628-1.144 1.063-.792.4-1.55.41l-.493-.974q.613-.03 1.004-.113.395-.085.682-.23.345-.174.46-.399.12-.226-.011-.486-.074-.145-.212-.216-.139-.074-.35-.098-.21-.026-.81-.012-.56.016-.886-.065-.326-.082-.593-.274t-.443-.54q-.332-.656-.079-1.255.257-.602 1.041-.998.386-.195.78-.28.398-.087.864-.114l.074.986q-.477.037-.77.105-.29.066-.54.192-.298.15-.387.37-.088.219.025.442.07.139.187.21t.304.098q.19.023.84.008.861-.02 1.288.185.424.202.669.685M-170.02 306.07q.238.71-.138 1.293-.372.581-1.285.888-.84.282-1.593.183l-.348-1.034q.611.058 1.01.032.403-.027.708-.13.367-.123.514-.328.15-.207.057-.483-.052-.155-.178-.244-.127-.094-.333-.148-.203-.056-.799-.128-.557-.064-.868-.192-.31-.127-.547-.356t-.361-.598q-.234-.697.102-1.254.34-.558 1.174-.838.41-.137.812-.165.406-.028.871.011l-.068.987q-.478-.031-.778-.006-.296.023-.562.113-.316.106-.435.31-.12.204-.04.44.05.148.155.237.105.084.287.14.185.049.83.128.856.104 1.248.368.391.26.564.774zM-176.364 303.875l.573 3.539q.099.606-.1 1.106-.196.5-.67.827-.472.326-1.172.44-1.055.17-1.726-.274-.671-.448-.823-1.387l-.571-3.524 1.156-.187.542 3.348q.103.632.405.886.302.255.89.16.568-.093.775-.43.21-.34.106-.976l-.54-3.34zM-182.518 308.698q-.002.75-.545 1.18-.54.431-1.502.428-.887-.003-1.568-.338l.003-1.091q.56.251.946.355.39.103.712.104.387.001.592-.146.209-.147.21-.439 0-.163-.09-.288-.091-.129-.269-.247-.174-.118-.715-.377-.507-.24-.76-.461-.254-.22-.404-.513-.151-.292-.15-.683.002-.735.5-1.154.502-.419 1.38-.416.433 0 .823.104.394.104.821.29l-.381.913q-.443-.183-.735-.256-.288-.073-.568-.074-.334 0-.512.154-.179.155-.18.405 0 .155.072.273.071.114.226.224.16.107.746.39.776.373 1.063.749.286.372.285.914zM-195.826 308.549l-1.122-.351 1.363-4.355-1.435-.449.292-.933 3.992 1.25-.292.933-1.435-.45zM-199.618 305.59q-.327.675-1.003.828-.672.155-1.539-.264-.798-.386-1.267-.983l.474-.982q.397.469.7.729.307.262.597.402.348.168.597.124.252-.042.379-.305.07-.147.043-.299-.026-.155-.135-.339-.106-.181-.482-.65-.353-.435-.486-.743-.133-.309-.143-.637-.01-.33.16-.68.32-.662.95-.825.634-.161 1.426.221.389.188.695.45.31.264.616.617l-.739.658q-.32-.357-.551-.549-.228-.19-.48-.312-.301-.145-.53-.083-.227.063-.336.288-.068.14-.054.277.016.134.108.3.097.165.504.673.538.672.634 1.135.097.46-.138.948M-205.623 304.198l-2.642-1.789 3.106-4.588 2.642 1.789-.54.797-1.67-1.13-.681 1.007 1.553 1.052-.54.797-1.553-1.052-.8 1.183 1.67 1.13zM-211.176 300.123l-.951-.94 1.512-2.598q.08-.14.348-.556.273-.417.38-.547-.16.13-.545.39-.381.256-.552.359l-2.572 1.54-.949-.938 2.89-4.934.822.812-1.622 2.65q-.457.725-.829 1.22.168-.137.542-.402.379-.265.606-.392l2.756-1.64.79.781-1.608 2.775q-.11.185-.354.546-.244.36-.43.608.235-.184.603-.438.37-.256.611-.403l2.627-1.655.822.813z" style="font-weight:700;font-size:7.76111px;line-height:1.2;font-family:Sans;-inkscape-font-specification:&quot;Sans, Bold&quot;;text-align:center;letter-spacing:1.5875px;word-spacing:2.64583px;text-anchor:middle;fill:#1a1a1a;stroke-width:.2;stroke-opacity:.582921"/><path d="m-144.024 274.866-.419 2.25q-.15.805-.623 1.191-.473.39-1.002.292-.678-.127-.907-.906-.242.51-.652.727-.411.22-.888.131-.678-.126-1.016-.67-.338-.545-.17-1.45l.472-2.534zm-1.195 1.12-1.114-.208-.126.678q-.059.313.069.518.128.204.37.25.238.044.427-.102.19-.146.248-.459zm-2.068-.386-1.23-.229-.135.73q-.097.518.003.772.103.254.457.32.272.05.468-.136.2-.187.268-.548zM-143.72 270.608l.008 1.318-3.005.019q-1.16.007-1.762-.675-.603-.683-.611-1.956-.008-1.258.594-1.959.602-.697 1.739-.704l3.013-.019.008 1.323-3.043.019q-.554.003-.885.365-.331.366-.327.953.004.61.347.972.343.366.972.362zM-148.267 265l-.953.18-.751-3.965 5.202-.986.245 1.296-4.248.805zM-148.902 258.841l-1.081.41q-.845-.741-1.23-1.758-.5-1.318-.071-2.377.434-1.056 1.5-1.46 1.067-.405 2.123.134 1.057.544 1.561 1.872.402 1.06.244 1.959l-1.101.418q.165-1.093-.14-1.897-.3-.79-.916-1.132-.611-.34-1.267-.09-.659.25-.9.904-.241.659.052 1.431.145.383.379.7.237.315.847.886zM-151.793 245.142l-.736.631-1.248-1.456-3.284 2.813-.858-1.002 3.284-2.813-1.247-1.456.736-.631zM-159.605 242.95l-.618.747-3.009-2.486 3.373-4.081 2.968 2.453-.618.748-1.952-1.613-.707.856 1.86 1.538-.617.747-1.86-1.537-.812.981zM-163.393 234.776l1.152.641-1.46 2.627q-.563 1.013-1.454 1.203-.89.19-2.003-.429-1.1-.61-1.414-1.48-.312-.867.24-1.86l1.464-2.633 1.156.642-1.478 2.66q-.27.484-.117.95.156.468.67.754.533.296 1.017.175.487-.12.792-.67zM-171.08 236.981l.047.13-1.243.538q-.397-.154-.793-.414-.372-.245-.732-.573-.34-.315-.652-.692-.23-.28-.584-.548-.294-.22-.531-.531-.246-.322-.392-.7-.158-.4-.182-.816-.026-.456.107-.891.322-1.05 1.386-1.585 1.068-.536 2.336-.147 1.287.395 1.846 1.426.56 1.032.25 2.043-.252.819-.973 1.347-.717.529-1.666.535.544.58 1.26.8.28.085.516.078zm-1.57-5.18q-.721-.22-1.296.075-.57.293-.784.992-.213.696.094 1.258.31.563 1.032.784.71.218 1.284-.065.576-.288.793-.994.219-.714-.105-1.273-.32-.562-1.019-.776zM-180.89 229.1q1.349.112 2.116.997.767.882.677 1.962-.092 1.095-1.004 1.83-.913.733-2.239.623-1.34-.112-2.116-.983-.776-.87-.684-1.973.09-1.084.993-1.826.906-.743 2.258-.63zm-.359 4.317q.748.062 1.242-.342.494-.408.554-1.129.06-.725-.36-1.205t-1.168-.542q-.751-.063-1.249.34-.494.405-.554 1.13-.06.721.36 1.205.424.48 1.175.543zM-190.624 229.488l2.35-.257q.765-.083 1.292.309.527.388.596 1.017.095.87-.764 1.388.42.133.86.885.444.752.852 1.417l-1.443.158q-.156-.246-.556-.942-.397-.696-.65-.879-.248-.182-.508-.154l-.376.042.233 2.136-1.31.143zm1.416.821.131 1.198.693-.076q.332-.036.507-.211.179-.18.147-.47-.065-.595-.815-.513zM-192.337 233.524l.33 1.108q-.8.789-1.843 1.1-1.35.403-2.375-.102-1.022-.51-1.349-1.602t.289-2.107q.618-1.015 1.98-1.422 1.086-.324 1.97-.102l.338 1.13q-1.078-.244-1.902.001-.81.242-1.195.832-.383.585-.183 1.257.202.675.838.964.64.287 1.431.051.392-.117.725-.327.332-.214.946-.78zM-205.637 241.571l-1.467-1.992-3.353-1.033 1.288-.948 1.91.659-.055-2.025 1.282-.944-.01 3.509 1.467 1.993zM-208.897 242.987l.7.673-2.705 2.814-3.817-3.669 2.668-2.776.7.673-1.755 1.825.801.77 1.673-1.741.7.672-1.674 1.74.918.883zM-212.708 247.107l.798.552-2.297 3.319-4.353-3.013.75-1.084 3.556 2.46zM-219.976 254.984l2.569 2.828-.217.526-5.844.11.532-1.294 3.18-.038-2.187-2.373.404-.98 3.224-.145-2.234-2.26.533-1.292 4.075 4.186-.217.526zM-224.07 262.188l5.604-1.464-.229 1.399-1.102.261-.383 2.338.968.557-.226 1.38-4.88-2.96zm3.297.432-2.169.509 1.906 1.099zM-224.694 272.237l-.04-2.364q-.012-.77.427-1.258.435-.488 1.068-.499.875-.014 1.311.888.172-.404.961-.774.79-.373 1.49-.718l.023 1.451q-.259.133-.989.468-.73.33-.934.565-.205.23-.2.492l.006.379 2.148-.036.022 1.319zm.948-1.334 1.205-.02-.012-.697q-.006-.334-.164-.525-.162-.194-.454-.19-.599.01-.586.765zM-220.83 274.317l1.134-.228q.712.869.927 1.935.278 1.382-.319 2.357-.6.971-1.719 1.196-1.118.225-2.072-.48-.954-.708-1.234-2.101-.224-1.111.078-1.972l1.156-.233q-.342 1.05-.172 1.894.167.829.719 1.266.547.435 1.235.297.69-.14 1.036-.746.345-.61.182-1.42-.08-.402-.26-.752-.182-.35-.69-1.013z" style="font-weight:700;font-size:7.76111px;line-height:1.2;font-family:&quot;Gill Sans MT&quot;;-inkscape-font-specification:&quot;Gill Sans MT, Bold&quot;;text-align:center;letter-spacing:.79375px;word-spacing:2.64583px;text-anchor:middle;stroke:#000;stroke-width:.2"/></g></svg>