<?xml version="1.0" encoding="UTF-8" standalone="no"?>
<!-- Created with Inkscape (http://www.inkscape.org/) -->

<svg
   width="164.57756mm"
   height="11.980158mm"
   viewBox="0 0 164.57756 11.980158"
   version="1.1"
   id="svg1"
   inkscape:version="1.4.2 (f4327f4, 2025-05-13)"
   sodipodi:docname="Line CCC.svg"
   xmlns:inkscape="http://www.inkscape.org/namespaces/inkscape"
   xmlns:sodipodi="http://sodipodi.sourceforge.net/DTD/sodipodi-0.dtd"
   xmlns="http://www.w3.org/2000/svg"
   xmlns:svg="http://www.w3.org/2000/svg">
  <sodipodi:namedview
     id="namedview1"
     pagecolor="#ffffff"
     bordercolor="#000000"
     borderopacity="0.25"
     inkscape:showpageshadow="2"
     inkscape:pageopacity="0.0"
     inkscape:pagecheckerboard="0"
     inkscape:deskcolor="#d1d1d1"
     inkscape:document-units="mm"
     inkscape:zoom="1.4702524"
     inkscape:cx="160.17658"
     inkscape:cy="-101.68322"
     inkscape:window-width="2560"
     inkscape:window-height="1369"
     inkscape:window-x="-8"
     inkscape:window-y="-8"
     inkscape:window-maximized="1"
     inkscape:current-layer="layer1" />
  <defs
     id="defs1" />
  <g
     inkscape:label="Layer 1"
     inkscape:groupmode="layer"
     id="layer1"
     transform="translate(-50.174034,-120.62501)">
    <g
       id="g46"
       inkscape:label="Balls"
       transform="matrix(0.30681759,0,0,0.30681759,38.561306,85.753293)"
       style="stroke-width:3.25926">
      <circle
         cx="77.683983"
         cy="108.06097"
         r="1.6944654"
         fill="none"
         stroke="#1a3a6e"
         stroke-width="0.529167"
         id="circle38"
         style="fill:#d40000;fill-opacity:1;stroke:#aa0000;stroke-width:0.0302178;stroke-dasharray:none"
         transform="matrix(5.3929468,0,0,5.3929468,-371.87698,-439.28398)"
         inkscape:label="Red" />
      <circle
         cx="77.683983"
         cy="108.06097"
         r="1.6944654"
         fill="none"
         stroke="#1a3a6e"
         stroke-width="0.529167"
         id="circle229"
         style="fill:#333333;fill-opacity:1;stroke:#000000;stroke-width:0.0302178;stroke-dasharray:none"
         transform="matrix(5.3929468,0,0,5.3929468,-351.26975,-439.28398)"
         inkscape:label="Black" />
      <circle
         cx="77.683983"
         cy="108.06097"
         r="1.6944654"
         fill="none"
         stroke="#1a3a6e"
         stroke-width="0.529167"
         id="circle343"
         style="fill:#ffd42a;fill-opacity:1;stroke:#d4aa00;stroke-width:0.0302178;stroke-dasharray:none"
         transform="matrix(5.3929468,0,0,5.3929468,-371.87698,-459.89121)"
         inkscape:label="Yellow" />
      <circle
         cx="77.683983"
         cy="108.06097"
         r="1.6944654"
         fill="none"
         stroke="#1a3a6e"
         stroke-width="0.529167"
         id="circle457"
         style="fill:#2a2aff;fill-opacity:1;stroke:#0000d4;stroke-width:0.0302178;stroke-dasharray:none"
         transform="matrix(5.3929468,0,0,5.3929468,-351.26975,-459.89121)"
         inkscape:label="Blue" />
    </g>
    <g
       id="g2"
       inkscape:label="Club"
       transform="translate(105.04033,-18.62971)"
       style="fill:#000000;fill-opacity:1;stroke:#000000;stroke-opacity:1">
      <path
         d="m 107.49808,148.37312 h -2.11838 v -6.25663 h 1.63917 q 0.7748,0 1.20923,0.21049 0.43443,0.20602 0.66284,0.57327 0.22841,0.36276 0.22841,0.84198 0,0.92259 -0.95395,1.32119 0.68523,0.12988 1.0883,0.56431 0.40756,0.43442 0.40756,1.03904 0,0.47921 -0.24633,0.85541 -0.24632,0.37621 -0.72553,0.61358 -0.47474,0.23736 -1.19132,0.23736 z m -0.45234,-5.45944 h -0.77032 v 1.88102 h 0.59566 q 0.71658,0 1.01664,-0.27319 0.30455,-0.2732 0.30455,-0.70763 0,-0.9002 -1.14653,-0.9002 z m 0.0672,2.67822 h -0.8375 v 1.98403 h 0.88229 q 0.73449,0 0.99425,-0.11197 0.26424,-0.11644 0.42099,-0.35829 0.16123,-0.24184 0.16123,-0.51952 0,-0.28663 -0.17018,-0.524 -0.16571,-0.23736 -0.47474,-0.35381 -0.30902,-0.11644 -0.97634,-0.11644 z"
         id="text54"
         style="font-size:9.17222px;line-height:1.2;font-family:'Gill Sans MT';-inkscape-font-specification:'Gill Sans MT, Normal';letter-spacing:1.34938px;fill:#000000;fill-opacity:1;stroke:#000000;stroke-width:0.1;stroke-opacity:1"
         aria-label="B" />
      <path
         d="m 101.88954,142.08066 h 0.9002 v 3.55155 q 0,0.72106 -0.10748,1.0883 -0.10301,0.36725 -0.25976,0.61357 -0.15228,0.24185 -0.37621,0.43443 -0.74345,0.64044 -1.94372,0.64044 -1.222664,0 -1.961637,-0.63596 -0.223931,-0.19706 -0.380683,-0.43891 -0.152273,-0.24632 -0.255281,-0.60013 -0.09853,-0.35381 -0.09853,-1.1107 v -3.54259 h 0.900203 v 3.55155 q 0,0.88229 0.201538,1.22714 0.201538,0.34485 0.613572,0.55535 0.412033,0.20602 0.971858,0.20602 0.7972,0 1.2988,-0.41652 0.26424,-0.22393 0.38069,-0.52847 0.11644,-0.30455 0.11644,-1.04352 z"
         id="text55"
         style="font-size:9.17222px;line-height:1.2;font-family:'Gill Sans MT';-inkscape-font-specification:'Gill Sans MT, Normal';letter-spacing:1.34938px;fill:#000000;fill-opacity:1;stroke:#000000;stroke-width:0.1;stroke-opacity:1"
         aria-label="U" />
      <path
         d="m 91.690402,142.11649 h 0.895725 v 5.44152 h 2.817054 v 0.81511 h -3.712779 z"
         id="text56"
         style="font-size:9.17222px;line-height:1.2;font-family:'Gill Sans MT';-inkscape-font-specification:'Gill Sans MT, Normal';letter-spacing:1.34938px;fill:#000000;fill-opacity:1;stroke:#000000;stroke-width:0.1;stroke-opacity:1"
         aria-label="L" />
      <path
         d="m 89.144195,147.31462 v 1.21267 q -1.212675,0.66146 -2.800177,0.66146 -1.289845,0 -2.188326,-0.51814 -0.898482,-0.51815 -1.422137,-1.42765 -0.523655,-0.90951 -0.523655,-1.96784 0,-1.68121 1.196138,-2.82774 1.201651,-1.14653 2.960029,-1.14653 1.212675,0 2.695445,0.6339 v 1.18511 q -1.350478,-0.7717 -2.640323,-0.7717 -1.322918,0 -2.199352,0.83785 -0.870921,0.83234 -0.870921,2.08911 0,1.26779 0.859897,2.08359 0.859897,0.8158 2.199351,0.8158 1.400089,0 2.734031,-0.85989 z"
         id="text57"
         style="font-size:11.2889px;line-height:1.2;font-family:'Gill Sans MT';-inkscape-font-specification:'Gill Sans MT, Normal';letter-spacing:1.34938px;fill:#000000;fill-opacity:1;stroke:#000000;stroke-width:0.1;stroke-opacity:1"
         aria-label="C" />
    </g>
    <g
       id="g3"
       inkscape:label="Croquet"
       transform="translate(44.915731,-5.3139543)"
       style="fill:#000000;fill-opacity:1;stroke:#000000;stroke-opacity:1">
      <path
         d="m 129.07556,128.56531 h 5.22655 v 0.79719 h -2.18109 v 5.4684 h -0.9002 v -5.4684 h -2.14526 z"
         id="text58"
         style="font-size:9.17222px;line-height:1.2;font-family:'Gill Sans MT';-inkscape-font-specification:'Gill Sans MT, Normal';letter-spacing:1.34938px;fill:#000000;fill-opacity:1;stroke:#000000;stroke-width:0.1;stroke-opacity:1"
         aria-label="T" />
      <path
         d="m 123.67303,128.57427 h 3.54707 v 0.79719 h -2.65135 v 1.90789 h 2.56178 v 0.80168 h -2.56178 v 1.94372 h 2.73644 v 0.79719 h -3.63216 z"
         id="text59"
         style="font-size:9.17222px;line-height:1.2;font-family:'Gill Sans MT';-inkscape-font-specification:'Gill Sans MT, Normal';letter-spacing:1.34938px;fill:#000000;fill-opacity:1;stroke:#000000;stroke-width:0.1;stroke-opacity:1"
         aria-label="E" />
      <path
         d="m 120.18287,128.53397 h 0.9002 v 3.55155 q 0,0.72105 -0.10749,1.0883 -0.103,0.36725 -0.25976,0.61357 -0.15227,0.24185 -0.3762,0.43443 -0.74345,0.64044 -1.94372,0.64044 -1.22267,0 -1.96164,-0.63596 -0.22393,-0.19706 -0.38068,-0.43891 -0.15228,-0.24632 -0.25528,-0.60013 -0.0985,-0.35381 -0.0985,-1.1107 v -3.54259 H 116.6 v 3.55155 q 0,0.88228 0.20154,1.22714 0.20154,0.34485 0.61357,0.55535 0.41203,0.20601 0.97186,0.20601 0.7972,0 1.2988,-0.41651 0.26424,-0.22393 0.38068,-0.52848 0.11645,-0.30454 0.11645,-1.04351 z"
         id="text60"
         style="font-size:9.17222px;line-height:1.2;font-family:'Gill Sans MT';-inkscape-font-specification:'Gill Sans MT, Normal';letter-spacing:1.34938px;fill:#000000;fill-opacity:1;stroke:#000000;stroke-width:0.1;stroke-opacity:1"
         aria-label="U" />
      <path
         d="m 113.23969,135.22951 -0.9002,0.87333 q -0.42099,-0.0224 -0.88229,-0.15228 -0.45682,-0.1254 -0.93156,-0.34933 -0.47025,-0.22393 -1.25849,-0.76584 -1.14205,-0.20602 -1.8855,-1.08383 -0.73897,-0.87781 -0.73897,-2.02434 0,-1.40181 0.95394,-2.31992 0.95395,-0.91812 2.41398,-0.91812 1.45108,0 2.4095,0.91364 0.96291,0.90916 0.96291,2.28857 0,1.15997 -0.72554,2.03778 -0.72554,0.87781 -1.87654,1.10622 l 0.23736,0.0896 q 1.10622,0.42547 1.59439,0.42547 0.26872,0 0.62701,-0.12092 z m -3.22909,-5.88939 q -1.05695,0 -1.74666,0.68075 -0.68971,0.68075 -0.68971,1.71531 0,1.00769 0.69419,1.67948 0.69418,0.66732 1.74218,0.66732 1.03456,0 1.74219,-0.68523 0.70762,-0.68523 0.70762,-1.68844 0,-1.02561 -0.69419,-1.6974 -0.69418,-0.67179 -1.75562,-0.67179 z"
         id="text61"
         style="font-size:9.17222px;line-height:1.2;font-family:'Gill Sans MT';-inkscape-font-specification:'Gill Sans MT, Normal';letter-spacing:1.34938px;fill:#000000;fill-opacity:1;stroke:#000000;stroke-width:0.1;stroke-opacity:1"
         aria-label="Q" />
      <path
         d="m 101.37674,128.48918 q 1.45107,0 2.41397,0.91812 0.96739,0.91811 0.96739,2.30201 0,1.38389 -0.97634,2.29305 -0.97186,0.90469 -2.45429,0.90469 -1.415244,0 -2.360233,-0.90469 -0.940511,-0.90916 -0.940511,-2.27514 0,-1.40181 0.949468,-2.31992 0.949468,-0.91812 2.400546,-0.91812 z m 0.0358,0.85094 q -1.07487,0 -1.769061,0.67179 -0.689708,0.67179 -0.689708,1.71531 0,1.01217 0.694187,1.68397 0.694182,0.67179 1.737702,0.67179 1.048,0 1.74667,-0.68523 0.70314,-0.68523 0.70314,-1.70636 0,-0.99425 -0.70314,-1.67052 -0.69867,-0.68075 -1.71979,-0.68075 z"
         id="text62"
         style="font-size:9.17222px;line-height:1.2;font-family:'Gill Sans MT';-inkscape-font-specification:'Gill Sans MT, Normal';letter-spacing:1.34938px;fill:#000000;fill-opacity:1;stroke:#000000;stroke-width:0.1;stroke-opacity:1"
         aria-label="O" />
      <path
         d="m 91.717274,134.82643 v -6.25664 h 1.567518 q 0.949468,0 1.504817,0.47026 0.559828,0.47026 0.559828,1.27193 0,0.54639 -0.273196,0.94499 -0.273196,0.3986 -0.783759,0.59566 0.300068,0.19705 0.5867,0.53743 0.286632,0.34038 0.806152,1.18684 0.32694,0.53295 0.523999,0.80167 l 0.331418,0.44786 h -1.065912 l -0.273196,-0.41203 q -0.01344,-0.0224 -0.05374,-0.0761 l -0.174666,-0.24632 -0.277675,-0.45682 -0.300067,-0.48817 q -0.277675,-0.38516 -0.510563,-0.61357 -0.22841,-0.22841 -0.416512,-0.32694 -0.183624,-0.10301 -0.622529,-0.10301 h -0.232888 v 2.723 z m 1.164442,-5.49527 h -0.268717 v 1.97507 h 0.340375 q 0.680751,0 0.931554,-0.11644 0.255281,-0.11644 0.394118,-0.34933 0.143316,-0.23737 0.143316,-0.53744 0,-0.29559 -0.156751,-0.53295 -0.156752,-0.24185 -0.443384,-0.34038 -0.282153,-0.0985 -0.940511,-0.0985 z"
         id="text63"
         style="font-size:9.17222px;line-height:1.2;font-family:'Gill Sans MT';-inkscape-font-specification:'Gill Sans MT, Normal';letter-spacing:1.34938px;fill:#000000;fill-opacity:1;stroke:#000000;stroke-width:0.1;stroke-opacity:1"
         aria-label="R" />
      <path
         d="m 89.144195,133.76792 v 1.21268 q -1.212675,0.66146 -2.800177,0.66146 -1.289845,0 -2.188326,-0.51814 -0.898482,-0.51815 -1.422137,-1.42765 -0.523655,-0.90951 -0.523655,-1.96784 0,-1.68121 1.196138,-2.82774 1.201651,-1.14653 2.960029,-1.14653 1.212675,0 2.695445,0.6339 v 1.18511 q -1.350478,-0.7717 -2.640323,-0.7717 -1.322918,0 -2.199352,0.83785 -0.870921,0.83233 -0.870921,2.08911 0,1.26779 0.859897,2.08359 0.859897,0.8158 2.199351,0.8158 1.400089,0 2.734031,-0.8599 z"
         id="text64"
         style="font-size:11.2889px;line-height:1.2;font-family:'Gill Sans MT';-inkscape-font-specification:'Gill Sans MT, Normal';letter-spacing:1.34938px;fill:#000000;fill-opacity:1;stroke:#000000;stroke-width:0.1;stroke-opacity:1"
         aria-label="C" />
    </g>
    <g
       id="g1"
       inkscape:label="Crawley"
       transform="translate(-3.0539845,8.3497404)"
       style="fill:#000000;fill-opacity:1;stroke:#000000;stroke-opacity:1">
      <path
         d="m 121.01064,115.13703 h 1.08383 l -2.31097,2.94693 v 3.30971 h -0.91812 v -3.30971 l -2.31097,-2.94693 h 1.08383 l 1.675,2.1587 z"
         id="text65"
         style="font-size:9.17222px;line-height:1.2;font-family:'Gill Sans MT';-inkscape-font-specification:'Gill Sans MT, Normal';letter-spacing:1.34938px;fill:#000000;fill-opacity:1;stroke:#000000;stroke-width:0.1;stroke-opacity:1"
         aria-label="Y" />
      <path
         d="m 111.30863,115.14152 h 3.54707 v 0.79719 h -2.65135 v 1.90789 h 2.56177 v 0.80168 h -2.56177 v 1.94372 h 2.73644 v 0.7972 h -3.63216 z"
         id="text66"
         style="font-size:9.17222px;line-height:1.2;font-family:'Gill Sans MT';-inkscape-font-specification:'Gill Sans MT, Normal';letter-spacing:1.34938px;fill:#000000;fill-opacity:1;stroke:#000000;stroke-width:0.1;stroke-opacity:1"
         aria-label="E" />
      <path
         d="m 105.46272,115.13703 h 0.89572 v 5.44153 h 2.81706 v 0.81511 h -3.71278 z"
         id="text67"
         style="font-size:9.17222px;line-height:1.2;font-family:'Gill Sans MT';-inkscape-font-specification:'Gill Sans MT, Normal';letter-spacing:1.34938px;fill:#000000;fill-opacity:1;stroke:#000000;stroke-width:0.1;stroke-opacity:1"
         aria-label="L" />
      <path
         d="m 102.89067,115.1236 h 0.89124 l -2.53042,6.2835 h -0.19258 l -2.046735,-5.08771 -2.06465,5.08771 h -0.19258 l -2.52146,-6.2835 h 0.9002 l 1.72427,4.31291 1.73323,-4.31291 h 0.85094 l 1.742185,4.31291 z"
         id="text68"
         style="font-size:9.17222px;line-height:1.2;font-family:'Gill Sans MT';-inkscape-font-specification:'Gill Sans MT, Normal';letter-spacing:1.34938px;fill:#000000;fill-opacity:1;stroke:#000000;stroke-width:0.1;stroke-opacity:1"
         aria-label="W" />
      <path
         d="m 89.820725,115.11912 h 0.63149 l 2.79914,6.29247 h -0.91812 l -0.83302,-1.85415 h -2.66031 l -0.78823,1.85415 h -0.91812 z m 1.31224,3.64112 -1.00769,-2.26618 -0.93603,2.26618 z"
         id="text69"
         style="font-size:9.17222px;line-height:1.2;font-family:'Gill Sans MT';-inkscape-font-specification:'Gill Sans MT, Normal';letter-spacing:1.34938px;fill:#000000;fill-opacity:1;stroke:#000000;stroke-width:0.1;stroke-opacity:1"
         aria-label="A" />
      <path
         d="m 80.960695,121.39367 v -6.25664 h 1.56752 q 0.94947,0 1.50482,0.47026 0.55983,0.47025 0.55983,1.27192 0,0.5464 -0.2732,0.94499 -0.2732,0.3986 -0.78376,0.59566 0.30007,0.19706 0.5867,0.53744 0.28663,0.34037 0.80615,1.18683 0.32694,0.53296 0.524,0.80167 l 0.33142,0.44787 h -1.06591 l -0.2732,-0.41204 q -0.0134,-0.0224 -0.0537,-0.0761 l -0.17466,-0.24633 -0.27768,-0.45682 -0.30007,-0.48817 q -0.27767,-0.38516 -0.51056,-0.61357 -0.22841,-0.22841 -0.41651,-0.32694 -0.18362,-0.10301 -0.62253,-0.10301 h -0.23289 v 2.72301 z m 1.16444,-5.49527 h -0.26871 v 1.97507 h 0.34037 q 0.68075,0 0.93156,-0.11644 0.25528,-0.11645 0.39412,-0.34934 0.14331,-0.23736 0.14331,-0.53743 0,-0.29559 -0.15675,-0.53296 -0.15675,-0.24184 -0.44338,-0.34037 -0.28216,-0.0985 -0.94051,-0.0985 z"
         id="text70"
         style="font-size:9.17222px;line-height:1.2;font-family:'Gill Sans MT';-inkscape-font-specification:'Gill Sans MT, Normal';letter-spacing:1.34938px;fill:#000000;fill-opacity:1;stroke:#000000;stroke-width:0.1;stroke-opacity:1"
         aria-label="R" />
      <path
         d="m 78.387615,120.33517 v 1.21267 q -1.21267,0.66146 -2.80017,0.66146 -1.28985,0 -2.18833,-0.51814 -0.89848,-0.51814 -1.42214,-1.42765 -0.52365,-0.90951 -0.52365,-1.96784 0,-1.68121 1.19614,-2.82774 1.20165,-1.14653 2.96003,-1.14653 1.21267,0 2.69544,0.6339 v 1.18512 q -1.35048,-0.77171 -2.64032,-0.77171 -1.32292,0 -2.19935,0.83785 -0.87093,0.83234 -0.87093,2.08911 0,1.2678 0.8599,2.08359 0.8599,0.8158 2.19935,0.8158 1.40009,0 2.73403,-0.85989 z"
         id="text71"
         style="font-size:11.2889px;line-height:1.2;font-family:'Gill Sans MT';-inkscape-font-specification:'Gill Sans MT, Normal';letter-spacing:1.34938px;fill:#000000;fill-opacity:1;stroke:#000000;stroke-width:0.1;stroke-opacity:1"
         aria-label="C" />
    </g>
  </g>
</svg>
